<svg id="Layer_1" data-name="Layer 1" xmlns="http://www.w3.org/2000/svg" width="543.44" height="543.44" viewBox="0 0 543.44 543.44">
  <defs>
    <style>
      .cls-1 {
        fill: #7fffb3;
      }

      .cls-2 {
        fill: #40ff8d;
      }

      .cls-3 {
        fill: #00ff67;
      }

      .cls-4 {
        fill: #8b8b8b;
      }

      .cls-5 {
        fill: #333;
      }
    </style>
  </defs>
  <g id="Layer_2" data-name="Layer 2">
    <polyline class="cls-1" points="249.44 173.98 273.16 218.43 297.15 173.98 273.3 181.43"/>
    <polyline class="cls-2" points="249.42 201.88 273.14 246.33 297.13 201.88 273.28 209.33"/>
    <polyline class="cls-3" points="249.38 227.94 273.1 272.39 297.08 227.94 273.23 235.39"/>
    <path class="cls-4" d="M273.22,347.29a14.3,14.3,0,0,0-.71-1.71c-.57-1.35-1.16-2.69-1.75-4s-1.15-2.58-1.71-3.87c-1-2.34-2-4.68-3.07-7-.6-1.37-1.21-2.74-1.8-4.12-.82-1.88-1.67-3.75-2.49-5.63-1-2.27-2-4.54-3-6.81l-2.47-5.64-2.9-6.6q-1.38-3.12-2.75-6.26c-.56-1.27-1.1-2.55-1.66-3.82-.63-1.44-1.27-2.86-1.91-4.29l-1.59-3.65c-.62-1.41-1.23-2.83-1.85-4.24l-1.87-4.27c-.42-1-.89-1.93-1.26-2.93.43.4.88.8,1.3,1.21.91.86,1.81,1.74,2.72,2.61l2,1.89c1,1,2,2,3,2.94s1.92,1.82,2.87,2.74,2,1.84,2.92,2.78,1.9,1.83,2.86,2.73,2.08,2,3.11,2.95,1.79,1.71,2.68,2.58l2.13,2.07,2.08,2c.64.6,1.28,1.2,1.91,1.81,1,1,2,1.95,3,2.93,0,0,.13.08.19.13a.48.48,0,0,1,.1.33c0,.16,0,.31,0,.46v41.35a7.79,7.79,0,0,1-.05,1.28v.14Z"/>
    <path class="cls-5" d="M273.34,347.15a2.69,2.69,0,0,1-.06-1c0-2.36,0-4.71,0-7.06v-7.88c0-3.09,0-6.19,0-9.28,0-3.46,0-6.92,0-10.37V304a2.71,2.71,0,0,1,0-.29c.48-.46,1-.93,1.44-1.38l1.89-1.78c.43-.42.85-.84,1.29-1.25.85-.79,1.67-1.6,2.52-2.39,1-1,2-2,3.06-3s2.05-1.91,3.07-2.88c.83-.79,1.65-1.6,2.48-2.4l2.1-2c.87-.83,1.73-1.68,2.61-2.5l1.73-1.64,1.71-1.65c.71-.67,1.43-1.33,2.14-2l2-1.91c.59-.57,1.2-1.13,1.79-1.69l2-1.91.81-.75s.07-.1.12-.08,0,.11,0,.17l-1,2.2-1.65,3.73q-1,2.17-1.9,4.37c-.55,1.24-1.11,2.48-1.65,3.73-.72,1.63-1.43,3.27-2.14,4.9l-2.28,5.2q-.94,2.13-1.88,4.27l-2.7,6.17c-.65,1.48-1.32,2.94-2,4.42-.81,1.85-1.6,3.71-2.41,5.56-.56,1.28-1.13,2.56-1.7,3.85l-3.06,7c-.9,2.05-1.81,4.11-2.71,6.17-.76,1.71-1.5,3.42-2.25,5.14-.63,1.44-1.28,2.88-1.91,4.33C274.35,344.85,273.85,346,273.34,347.15Z"/>
  </g>
</svg>
