<?xml version="1.0" encoding="utf-8"?>
<!-- Generator: Adobe Illustrator 19.0.0, SVG Export Plug-In . SVG Version: 6.00 Build 0)  -->
<svg version="1.1" id="Layer_1" xmlns="http://www.w3.org/2000/svg" xmlns:xlink="http://www.w3.org/1999/xlink" x="0px" y="0px"
	 viewBox="214.2 319.3 68 178.6" style="enable-background:new 214.2 319.3 68 178.6;" xml:space="preserve">
<style type="text/css">
	.st0{fill:#7FFFB3;}
	.st1{fill:#40FF8D;}
	.st2{fill:#00FF67;}
	.st3{fill:#8B8B8B;}
	.st4{fill:#333333;}
</style>
<g id="Layer_2">
	<polyline class="st0" points="224.4,323.4 248.2,367.9 272.1,323.4 248.3,330.9 	"/>
	<polyline class="st1" points="224.4,351.3 248.1,395.8 272.1,351.3 248.3,358.8 	"/>
	<polyline class="st2" points="224.4,377.4 248.1,421.8 272.1,377.4 248.2,384.8 	"/>
	<path class="st3" d="M248.2,496.7c-0.2-0.6-0.4-1.2-0.7-1.7c-0.6-1.4-1.2-2.7-1.8-4s-1.1-2.6-1.7-3.9c-1-2.3-2-4.7-3.1-7
		c-0.6-1.4-1.2-2.7-1.8-4.1c-0.8-1.9-1.7-3.8-2.5-5.6c-1-2.3-2-4.5-3-6.8l-2.5-5.6l-2.9-6.6c-0.9-2.1-1.8-4.2-2.8-6.3
		c-0.6-1.3-1.1-2.5-1.7-3.8c-0.6-1.4-1.3-2.9-1.9-4.3l-1.6-3.6c-0.6-1.4-1.2-2.8-1.9-4.2l-1.9-4.3c-0.4-1-0.9-1.9-1.3-2.9
		c0.4,0.4,0.9,0.8,1.3,1.2c0.9,0.9,1.8,1.7,2.7,2.6l2,1.9c1,1,2,2,3,2.9s1.9,1.8,2.9,2.7s2,1.8,2.9,2.8s1.9,1.8,2.9,2.7s2.1,2,3.1,3
		s1.8,1.7,2.7,2.6l2.1,2.1l2.1,2c0.6,0.6,1.3,1.2,1.9,1.8c1,1,2,2,3,2.9c0,0,0.1,0.1,0.2,0.1c0.1,0.1,0.1,0.2,0.1,0.3
		c0,0.2,0,0.3,0,0.5v41.4C248.3,495.8,248.3,496.3,248.2,496.7L248.2,496.7L248.2,496.7z"/>
	<path class="st4" d="M248.3,496.6c-0.1-0.3-0.1-0.7-0.1-1c0-2.4,0-4.7,0-7.1v-7.9c0-3.1,0-6.2,0-9.3c0-3.5,0-6.9,0-10.4v-7.6
		c0-0.1,0-0.2,0-0.3c0.5-0.5,1-0.9,1.4-1.4l1.9-1.8c0.4-0.4,0.9-0.8,1.3-1.3c0.9-0.8,1.7-1.6,2.5-2.4c1-1,2-2,3.1-3s2-1.9,3.1-2.9
		c0.8-0.8,1.6-1.6,2.5-2.4l2.1-2c0.9-0.8,1.7-1.7,2.6-2.5l1.7-1.6l1.7-1.6c0.7-0.7,1.4-1.3,2.1-2l2-1.9c0.6-0.6,1.2-1.1,1.8-1.7
		l2-1.9l0.8-0.8c0,0,0.1-0.1,0.1-0.1s0,0.1,0,0.2l-1,2.2l-1.6,3.7c-0.7,1.4-1.3,2.9-1.9,4.4c-0.5,1.2-1.1,2.5-1.6,3.7
		c-0.7,1.6-1.4,3.3-2.1,4.9l-2.3,5.2c-0.6,1.4-1.3,2.8-1.9,4.3l-2.7,6.2c-0.6,1.5-1.3,2.9-2,4.4c-0.8,1.9-1.6,3.7-2.4,5.6
		c-0.6,1.3-1.1,2.6-1.7,3.9l-3.1,7c-0.9,2-1.8,4.1-2.7,6.2c-0.8,1.7-1.5,3.4-2.3,5.1c-0.6,1.4-1.3,2.9-1.9,4.3
		C249.4,494.3,248.9,495.5,248.3,496.6z"/>
</g>
</svg>
