<?xml version="1.0" encoding="utf-8"?>
<!-- Generator: Adobe Illustrator 19.0.0, SVG Export Plug-In . SVG Version: 6.00 Build 0)  -->
<svg version="1.1" id="Layer_1" xmlns="http://www.w3.org/2000/svg" xmlns:xlink="http://www.w3.org/1999/xlink" x="0px" y="0px"
	 viewBox="214 321 68 178.6" style="enable-background:new 214 321 68 178.6;" xml:space="preserve">
<style type="text/css">
	.st0{fill:#8B8B8B;}
	.st1{fill:#333333;}
	.st2{fill:#FDD146;}
	.st3{fill:#775F18;}
</style>
<g id="Layer_2">
	<path class="st0" d="M248.1,496.1c-0.2-0.6-0.4-1.2-0.7-1.7c-0.6-1.3-1.2-2.7-1.8-4s-1.1-2.6-1.7-3.9c-1-2.3-2-4.7-3.1-7
		c-0.6-1.4-1.2-2.7-1.8-4.1c-0.8-1.9-1.7-3.8-2.5-5.6l-3-6.8l-2.5-5.6l-2.9-6.6c-0.9-2.1-1.8-4.2-2.8-6.3c-0.6-1.3-1.1-2.5-1.7-3.8
		c-0.6-1.4-1.3-2.9-1.9-4.3l-1.6-3.6c-0.6-1.4-1.2-2.8-1.9-4.2s-1.3-2.9-1.9-4.3c-0.4-1-0.9-1.9-1.3-2.9c0.4,0.4,0.9,0.8,1.3,1.2
		l2.7,2.6l2,1.9c1,1,2,2,3,2.9s1.9,1.8,2.9,2.7s2,1.9,2.9,2.8c0.9,0.9,1.9,1.8,2.9,2.7s2.1,2,3.1,2.9l2.7,2.6l2.1,2.1l2.1,2l1.9,1.8
		l3,2.9c0.1,0,0.1,0.1,0.2,0.1c0.1,0.1,0.1,0.2,0.1,0.3v41.8C248.2,495.2,248.1,495.7,248.1,496.1L248.1,496.1L248.1,496.1z"/>
	<path class="st1" d="M248.2,496c-0.1-0.3-0.1-0.7-0.1-1c0-2.4,0-4.7,0-7v-7.9c0-3.1,0-6.2,0-9.3c0-3.5,0-6.9,0-10.4
		c0-2.5,0-5,0-7.5c0-0.1,0-0.2,0-0.3l1.4-1.4l1.9-1.8c0.4-0.4,0.9-0.8,1.3-1.2c0.9-0.8,1.7-1.6,2.5-2.4c1-1,2-2,3.1-3s2-1.9,3.1-2.9
		l2.5-2.4l2.1-2c0.9-0.8,1.7-1.7,2.6-2.5l1.7-1.6l1.7-1.6l2.1-2l2-1.9l1.8-1.7l2-1.9l0.8-0.8c0,0,0.1-0.1,0.1-0.1s0,0.1,0,0.2
		l-1,2.2c-0.5,1.3-1.1,2.5-1.6,3.7c-0.6,1.5-1.3,2.9-1.9,4.4c-0.5,1.3-1.1,2.5-1.6,3.7c-0.7,1.6-1.4,3.3-2.1,4.9l-2.3,5.2
		c-0.6,1.4-1.3,2.9-1.9,4.3l-2.7,6.2c-0.6,1.5-1.3,2.9-2,4.4c-0.8,1.9-1.6,3.7-2.4,5.5c-0.6,1.3-1.1,2.6-1.7,3.9l-3.1,7
		c-0.9,2.1-1.8,4.1-2.7,6.2c-0.8,1.7-1.5,3.4-2.2,5.1c-0.6,1.5-1.3,2.9-1.9,4.3C249.2,493.7,248.7,494.8,248.2,496z"/>
	<g>
		<path class="st2" d="M245.1,325.4c0.5-0.3,0.4-0.8,0.5-1.3c0.1-0.4,0.3-0.7,0.8-0.8c0.8-0.1,1.6,0.3,2.2,0.9
			c2.1,2.2,4.3,4.4,6.5,6.5c0.3,0.3,0.5,0.7,0.5,1.1c0,1,0.3,2.2-0.1,3.1c-0.5,0.9-1.2,1.6-2.1,2.2c-0.7,0.6-1.1,1.6-1.1,2.5
			c-0.3,1.7,0.4,3.4,1.9,4.3c0.7,0.6,1,1.4,1,2.3c0.2,2-0.4,3.3-2.3,3.9c-1.4,0.3-2.2,1.6-1.9,3c0,0.1,0,0.1,0.1,0.2
			c0.1,0.9,0.1,1.7,0,2.6c-0.1,0.5,0.2,1,0.7,1.1c0.7,0.2,1.1,0.9,0.9,1.6c0,0,0,0,0,0c0,0.3,0,0.6,0,0.9c0.4,1.8-0.3,3.8-1.9,4.9
			c-0.7,0.5-0.4,3.8,0.3,4.3c1.6,1.3,3.2,2.7,4.9,4c0.4,0.3,0.6,0.7,0.5,1.1c0,4.4,0,8.7,0,13.1c-0.1,0.5,0.3,0.9,0.7,1
			c0,0,0,0,0.1,0c3,0.7,5.8,2.3,7.8,4.7c1.6,2.1,2.6,4.5,2.9,7.1c0.5,3.1,0.5,6.2-0.1,9.3c-1,5.2-4.8,9.5-9.9,11.1
			c-6.4,2.3-13.5,2.1-19.8-0.5c-6.8-2.8-10.5-9.1-9.9-16.5c0.1-2.7,0.8-5.4,2-7.9c2.1-3.9,5.5-6,9.6-7.1c0.6-0.2,0.8-0.4,0.8-1
			c0-18.5,0-37-0.1-55.6c-0.1-1.2,0.4-2.3,1.4-2.9c0.1,12.5,0.2,25,0.4,37.5c0,3.6,0,7.1,0.1,10.7c0,1.6,0.6,3.1,1.6,4.3
			c0.2,0.3,0.5,0.7,0.9,0.6s0.1-0.6,0.1-1c0-18.1,0-36.2,0-54.2C244.9,326.1,245,325.7,245.1,325.4z M248.5,405.1
			c-0.5,0-0.9,0-1.3,0c-2.2,0.1-4.3,0.8-6.2,2c-1.9,1.1-2.6,3.5-1.5,5.5c0.2,0.3,0.4,0.6,0.7,0.9c0.3,0.4,0.7,0.8,1.1,1.1
			c2.3,1.8,5.2,2.7,8.1,2.5c2.4,0,4.8-0.9,6.6-2.5c2.4-2.1,2.4-5,0-7.1C253.9,405.8,251.2,404.9,248.5,405.1z"/>
		<path class="st3" d="M245.1,325.4c-0.1,0.4-0.1,0.8-0.1,1.2c0,18.1,0,36.2,0,54.2c0,0.3,0.2,0.8-0.1,1c-0.3,0.2-0.7-0.3-0.9-0.6
			c-1-1.2-1.6-2.7-1.6-4.3c-0.1-3.6-0.1-7.1-0.1-10.7c-0.1-12.5-0.3-25-0.4-37.6c-0.1-0.7,0.2-1.5,0.8-1.9c0.5-0.5,1.1-1,1.5-1.6
			C244.6,324.7,244.9,324.8,245.1,325.4z"/>
	</g>
</g>
</svg>
