<svg id="Layer_1" data-name="Layer 1" xmlns="http://www.w3.org/2000/svg" width="146.22" height="385.5" viewBox="0 0 146.22 385.5">
  <defs>
    <style>
      .cls-1 {
        fill: #8b8b8b;
      }

      .cls-2 {
        fill: #333;
      }

      .cls-3 {
        fill: #fdd146;
      }

      .cls-4 {
        fill: #775f18;
      }
    </style>
  </defs>
  <g id="Layer_2" data-name="Layer 2">
    <path class="cls-1" d="M73,385.2a32.66,32.66,0,0,0-1.58-3.82c-1.28-3-2.59-6-3.9-9s-2.55-5.75-3.82-8.63c-2.28-5.21-4.53-10.44-6.83-15.65-1.35-3.06-2.7-6.11-4-9.18-1.81-4.2-3.71-8.37-5.55-12.56-2.22-5.05-4.4-10.12-6.61-15.18q-2.74-6.3-5.51-12.58-3.22-7.35-6.46-14.7c-2.05-4.66-4.1-9.3-6.14-14-1.25-2.84-2.45-5.69-3.7-8.53-1.4-3.19-2.84-6.37-4.25-9.56-1.19-2.7-2.37-5.42-3.55-8.13Q9,239,7,234.27t-4.15-9.52c-.94-2.17-2-4.3-2.83-6.53,1,.9,2,1.78,2.92,2.7L9,226.73,13.38,231c2.26,2.18,4.48,4.4,6.79,6.54,2.16,2,4.27,4.07,6.4,6.11s4.36,4.11,6.5,6.21,4.24,4.08,6.39,6.09q3.48,3.25,6.92,6.56c2,1.91,4,3.81,6,5.75q2.37,2.32,4.76,4.62c1.54,1.48,3.08,2.94,4.63,4.4s2.85,2.67,4.26,4c2.27,2.17,4.52,4.36,6.77,6.54a2.44,2.44,0,0,0,.43.28,1,1,0,0,1,.22.75c0,.35,0,.69,0,1V382a18.07,18.07,0,0,1-.11,2.85v.31Z"/>
    <path class="cls-2" d="M73.32,384.89a5.84,5.84,0,0,1-.14-2.28c0-5.24,0-10.49,0-15.73q0-8.78,0-17.56c0-6.9,0-13.8,0-20.7q0-11.56,0-23.13c0-5.58,0-11.17,0-16.75,0-.22,0-.44,0-.66L76.42,285l4.2-4c1-.92,1.91-1.87,2.88-2.78,1.89-1.77,3.73-3.58,5.62-5.33,2.32-2.15,4.53-4.43,6.81-6.61s4.58-4.27,6.85-6.43c1.86-1.77,3.68-3.58,5.53-5.36L113,250c1.94-1.86,3.84-3.76,5.81-5.58,1.3-1.2,2.58-2.43,3.85-3.65s2.54-2.46,3.82-3.67c1.58-1.51,3.19-3,4.77-4.5s2.92-2.85,4.4-4.26c1.32-1.26,2.66-2.5,4-3.76l4.43-4.25c.59-.56,1.2-1.11,1.79-1.68.09-.09.15-.23.27-.17s.08.23,0,.37c-.71,1.63-1.42,3.27-2.14,4.9-1.22,2.78-2.46,5.54-3.68,8.32-1.42,3.24-2.82,6.49-4.24,9.74-1.22,2.77-2.46,5.54-3.67,8.32-1.6,3.64-3.18,7.28-4.78,10.92l-5.07,11.59q-2.1,4.76-4.19,9.52-3,6.89-6,13.77c-1.45,3.29-2.93,6.55-4.37,9.84-1.81,4.12-3.57,8.26-5.37,12.39-1.25,2.87-2.53,5.73-3.79,8.59C96.54,332,94.28,337.16,92,342.34q-3,6.89-6.06,13.76l-5,11.46c-1.42,3.22-2.85,6.43-4.26,9.65C75.55,379.77,74.44,382.33,73.32,384.89Z"/>
    <g>
      <path class="cls-3" d="M66.35,4.51c1.07-.67.92-1.83,1.08-2.84S68,.05,69.3,0a6,6,0,0,1,4.89,2c4.72,4.94,9.61,9.72,14.47,14.52a3,3,0,0,1,1,2.44c-.09,2.34.55,4.93-.26,7s-2.92,3.44-4.66,4.89-2.12,3.35-2.35,5.62c-.41,4.14.84,7.25,4.14,9.61,1.79,1.28,2,3,2.22,5.12.55,4.44-.78,7.38-5.1,8.8-3.46,1.12-4.68,3.45-4.12,7a27.22,27.22,0,0,1,0,5.78,2.08,2.08,0,0,0,1.47,2.43c1.74.59,2.22,1.82,2,3.52a7.85,7.85,0,0,0,0,2.11c.56,4.36-.3,8.07-4.17,10.81-1.61,1.13-1,8.38.61,9.66,3.6,3,7.18,6,10.82,8.9a2.82,2.82,0,0,1,1.18,2.51c0,9.71,0,19.41-.06,29.12a2,2,0,0,0,1.78,2.34c6.8,1.79,12.88,4.83,17.39,10.45a32.16,32.16,0,0,1,6.46,15.87c1,6.92,1.26,13.85-.31,20.74-2.8,12.3-10.26,20.67-22.06,24.65-14.71,5-29.57,4.78-44-1.2-15.27-6.33-23.4-20.29-22.16-36.81C29,171.76,30,165.81,33,160.36c4.67-8.64,12.28-13.36,21.45-15.9,1.35-.37,1.66-.92,1.66-2.24-.05-41.29,0-82.58-.13-123.87,0-3,.85-5,3.2-6.55q.39,41.85.78,83.68c.08,8,.12,15.91.31,23.86a14.28,14.28,0,0,0,3.55,9.5c.55.61,1.19,1.64,2.06,1.28.63-.27.26-1.39.26-2.12q0-60.45,0-120.89A7.13,7.13,0,0,1,66.35,4.51ZM74,182.32c-1,0-2-.07-3,0-4.94.43-9.67,1.56-13.79,4.48-5.16,3.67-5.87,9.18-1.87,14.09a16,16,0,0,0,2.47,2.46A26.21,26.21,0,0,0,76,208.88c5.44-.3,10.59-1.7,14.79-5.46,5.26-4.71,5.26-11.15,0-15.77C86,183.48,80.21,182.21,74,182.32Z"/>
      <path class="cls-4" d="M66.35,4.51a7.13,7.13,0,0,0-.2,2.6q0,60.45,0,120.89c0,.73.37,1.85-.26,2.12-.87.36-1.51-.67-2.06-1.28a14.28,14.28,0,0,1-3.55-9.5c-.19-8-.23-15.9-.31-23.86q-.41-41.83-.78-83.68A4.59,4.59,0,0,1,61,7.61a30.77,30.77,0,0,0,3.42-3.43C65.38,3.08,65.91,3.26,66.35,4.51Z"/>
    </g>
  </g>
</svg>
