<svg id="Layer_1" data-name="Layer 1" xmlns="http://www.w3.org/2000/svg" width="543.44" height="543.44" viewBox="0 0 543.44 543.44">
  <defs>
    <style>
      .cls-1 {
        fill: #8b8b8b;
      }

      .cls-2 {
        fill: #333;
      }

      .cls-3 {
        fill: #fdd146;
      }

      .cls-4 {
        fill: #775f18;
      }
    </style>
  </defs>
  <g id="Layer_2" data-name="Layer 2">
    <path class="cls-1" d="M273.07,346.69a15.17,15.17,0,0,0-.71-1.72c-.58-1.34-1.16-2.69-1.75-4s-1.15-2.58-1.71-3.87c-1-2.34-2-4.68-3.07-7-.61-1.37-1.21-2.74-1.8-4.12-.82-1.88-1.67-3.75-2.5-5.63l-3-6.81-2.47-5.64-2.9-6.6c-.92-2.09-1.84-4.17-2.75-6.26-.56-1.27-1.1-2.55-1.66-3.83-.63-1.43-1.28-2.85-1.91-4.28l-1.59-3.65c-.62-1.41-1.24-2.83-1.85-4.24s-1.25-2.85-1.87-4.27c-.42-1-.89-1.93-1.27-2.93.44.4.88.8,1.31,1.21l2.72,2.6,2,1.9c1,1,2,2,3,2.93s1.91,1.83,2.87,2.74,2,1.85,2.92,2.79,1.9,1.83,2.86,2.73,2.08,2,3.11,2.94l2.67,2.58,2.14,2.08,2.08,2,1.91,1.8,3,2.94a.88.88,0,0,0,.19.12.52.52,0,0,1,.1.34v41.81a7.83,7.83,0,0,1-.05,1.28v.14Z"/>
    <path class="cls-2" d="M273.19,346.55a2.76,2.76,0,0,1-.06-1c0-2.35,0-4.7,0-7v-7.88c0-3.09,0-6.19,0-9.28,0-3.46,0-6.92,0-10.38,0-2.5,0-5,0-7.51,0-.1,0-.2,0-.3l1.44-1.38,1.89-1.78c.43-.41.85-.84,1.29-1.24.85-.79,1.67-1.61,2.52-2.39,1-1,2-2,3.06-3s2.05-1.91,3.07-2.88l2.48-2.41,2.1-2c.87-.84,1.73-1.69,2.61-2.5l1.73-1.64,1.71-1.65,2.14-2,2-1.92,1.79-1.68,2-1.91.81-.75s.06-.11.12-.08,0,.11,0,.17l-1,2.19c-.55,1.25-1.11,2.49-1.65,3.74-.64,1.45-1.27,2.91-1.91,4.36-.54,1.25-1.1,2.49-1.64,3.74-.72,1.63-1.43,3.27-2.14,4.9l-2.28,5.19c-.63,1.43-1.26,2.85-1.88,4.28l-2.7,6.17c-.65,1.48-1.32,2.94-2,4.42-.81,1.85-1.6,3.7-2.41,5.55-.56,1.29-1.14,2.57-1.7,3.86l-3.06,7q-1.35,3.09-2.72,6.17c-.75,1.72-1.49,3.43-2.24,5.14-.63,1.45-1.28,2.89-1.91,4.33C274.19,344.25,273.69,345.4,273.19,346.55Z"/>
    <g>
      <path class="cls-3" d="M270.06,175.92c.49-.3.42-.82.49-1.27s.25-.73.84-.75a2.67,2.67,0,0,1,2.19.9c2.12,2.21,4.31,4.36,6.49,6.51a1.36,1.36,0,0,1,.46,1.1c0,1.05.25,2.21-.11,3.11a6.61,6.61,0,0,1-2.09,2.2,3.32,3.32,0,0,0-1.06,2.52,4.33,4.33,0,0,0,1.86,4.31,2.86,2.86,0,0,1,1,2.3c.24,2-.35,3.31-2.29,3.94A2.51,2.51,0,0,0,276,204a11.8,11.8,0,0,1,0,2.59.94.94,0,0,0,.66,1.09,1.27,1.27,0,0,1,.89,1.58,3.78,3.78,0,0,0,0,.95,4.65,4.65,0,0,1-1.87,4.85c-.72.5-.42,3.76.27,4.33,1.62,1.33,3.23,2.68,4.86,4a1.3,1.3,0,0,1,.53,1.13c0,4.35,0,8.71,0,13.06a.88.88,0,0,0,.8,1,14.15,14.15,0,0,1,7.8,4.69,14.39,14.39,0,0,1,2.9,7.11,25.34,25.34,0,0,1-.14,9.31,14.39,14.39,0,0,1-9.9,11.06A27.41,27.41,0,0,1,263,270.2c-6.84-2.84-10.49-9.1-9.94-16.51a19.33,19.33,0,0,1,2-7.86c2.1-3.87,5.51-6,9.62-7.13.61-.17.75-.41.75-1,0-18.52,0-37-.06-55.56a3.12,3.12,0,0,1,1.44-2.94q.16,18.77.35,37.53c0,3.57.05,7.14.14,10.7a6.38,6.38,0,0,0,1.59,4.26c.24.28.53.74.92.58s.12-.62.12-1q0-27.12,0-54.23A3.29,3.29,0,0,1,270.06,175.92Zm3.46,79.76c-.45,0-.9,0-1.34,0a12.19,12.19,0,0,0-6.18,2,4,4,0,0,0-.84,6.32,6.8,6.8,0,0,0,1.11,1.1,11.75,11.75,0,0,0,8.14,2.48,10.41,10.41,0,0,0,6.63-2.45c2.36-2.12,2.36-5,0-7.08A10.66,10.66,0,0,0,273.52,255.68Z"/>
      <path class="cls-4" d="M270.06,175.92a3.29,3.29,0,0,0-.08,1.17q0,27.12,0,54.23c0,.33.16.83-.12,1s-.68-.3-.92-.58a6.38,6.38,0,0,1-1.59-4.26c-.09-3.56-.11-7.13-.14-10.7Q267,198,266.85,179.2a2,2,0,0,1,.83-1.88,14,14,0,0,0,1.53-1.55C269.63,175.28,269.87,175.37,270.06,175.92Z"/>
    </g>
  </g>
</svg>
