<svg id="Layer_1" data-name="Layer 1" xmlns="http://www.w3.org/2000/svg" xmlns:xlink="http://www.w3.org/1999/xlink" width="311.64" height="442.34" viewBox="0 0 311.64 442.34">
  <defs>
    <style>
      .cls-1 {
        fill: #333;
      }

      .cls-2 {
        fill: url(#linear-gradient);
      }

      .cls-3 {
        fill: #a3a3a3;
      }

      .cls-4 {
        fill: #dfdfdf;
      }

      .cls-5 {
        fill: #bdbdbd;
      }

      .cls-6 {
        fill: #5c5c5c;
      }

      .cls-7 {
        fill: #606060;
      }

      .cls-8 {
        fill: #434343;
      }

      .cls-9 {
        fill: #aba9a9;
      }

      .cls-10 {
        fill: #d8cfcf;
      }

      .cls-11 {
        fill: #616767;
      }

      .cls-12 {
        fill: #707878;
      }

      .cls-13 {
        fill: #616666;
      }

      .cls-14 {
        fill: #555d5d;
      }

      .cls-15 {
        fill: #d1d1d1;
      }

      .cls-16 {
        fill: #8a8a8a;
      }

      .cls-17 {
        fill: #a1a1a1;
      }

      .cls-18 {
        fill: #afafaf;
      }

      .cls-19 {
        fill: #adadad;
      }

      .cls-20 {
        fill: #a8a2a2;
      }

      .cls-21 {
        fill: #605b5b;
      }

      .cls-22 {
        fill: #615c5c;
      }

      .cls-23 {
        fill: #716d6d;
      }

      .cls-24 {
        fill: #dcdcdc;
      }

      .cls-25 {
        fill: #c1c1c1;
      }

      .cls-26 {
        fill: #c3c3c3;
      }

      .cls-27 {
        fill: #b8b8b8;
      }

      .cls-28 {
        fill: #aeaeae;
      }

      .cls-29 {
        fill: #707070;
      }

      .cls-30 {
        fill: #737373;
      }

      .cls-31 {
        fill: #5a5a5a;
      }

      .cls-32 {
        fill: #c5c5c5;
      }

      .cls-33 {
        fill: #999;
      }

      .cls-34 {
        fill: #9b9b9b;
      }

      .cls-35 {
        fill: #898989;
      }

      .cls-36 {
        fill: #979797;
      }

      .cls-37 {
        fill: #474747;
      }

      .cls-38 {
        fill: #4c4c4c;
      }

      .cls-39 {
        fill: #2b2b2b;
      }

      .cls-40 {
        fill: #bababa;
      }

      .cls-41 {
        fill: #858585;
      }

      .cls-42 {
        fill: #888;
      }

      .cls-43 {
        fill: #727272;
      }

      .cls-44 {
        fill: #383838;
      }

      .cls-45 {
        fill: #8b8b8b;
      }

      .cls-46 {
        fill: #141414;
      }
    </style>
    <linearGradient id="linear-gradient" x1="7.87" y1="411.14" x2="311.64" y2="411.14" gradientUnits="userSpaceOnUse">
      <stop offset="0" stop-color="#dcdcdc"/>
      <stop offset="0.5" stop-color="#858685"/>
      <stop offset="1" stop-color="#2b2c2b"/>
    </linearGradient>
  </defs>
  <g id="Layer_2" data-name="Layer 2">
    <g>
      <g>
        <path class="cls-1" d="M46.23,381.64l15.26,55.55,16.86-55.55h2.87l-17.88,59H59.8L44.46,385.09,29.29,440.65H25.75l-17.88-59h2.87L27.6,437.19l15.26-55.55Z"/>
        <path class="cls-1" d="M134.76,440.65,128.6,424.3H98.76L92.6,440.65H89.65l22.34-59h3.63l22.17,59h-3Zm-35-18.8h28l-14-37.09Z"/>
        <path class="cls-1" d="M177,409.21h24.78v1.93c0,21.84-7.42,31.2-24.78,31.2-18.55,0-26.56-9.36-26.56-31.2S158.45,380,177,380c13.91,0,21.16,6.07,23.94,20.23h-2.78c-2.78-12.47-8.94-17.62-21.16-17.62-16.78,0-23.61,8.35-23.61,28.58s6.83,28.58,23.61,28.58c15.59,0,22-8.26,22-28.07H177Z"/>
        <path class="cls-1" d="M234.16,440.65h-2.78v-25l-20.32-34h3.2l18.55,31.11,18.46-31.11h3.12l-20.23,34Z"/>
        <path class="cls-1" d="M268.73,381.64h2.86v37.85c0,14.33,5.4,20.23,18.63,20.23s18.55-5.9,18.55-20.23V381.64h2.87v37.85c0,16-6.41,22.85-21.42,22.85s-21.49-6.83-21.49-22.85Z"/>
      </g>
      <g>
        <path class="cls-2" d="M46.23,381.64l15.26,55.55,16.86-55.55h2.87l-17.88,59H59.8L44.46,385.09,29.29,440.65H25.75l-17.88-59h2.87L27.6,437.19l15.26-55.55Z"/>
        <path class="cls-2" d="M134.76,440.65,128.6,424.3H98.76L92.6,440.65H89.65l22.34-59h3.63l22.17,59h-3Zm-35-18.8h28l-14-37.09Z"/>
        <path class="cls-2" d="M177,409.21h24.78v1.93c0,21.84-7.42,31.2-24.78,31.2-18.55,0-26.56-9.36-26.56-31.2S158.45,380,177,380c13.91,0,21.16,6.07,23.94,20.23h-2.78c-2.78-12.47-8.94-17.62-21.16-17.62-16.78,0-23.61,8.35-23.61,28.58s6.83,28.58,23.61,28.58c15.59,0,22-8.26,22-28.07H177Z"/>
        <path class="cls-2" d="M234.16,440.65h-2.78v-25l-20.32-34h3.2l18.55,31.11,18.46-31.11h3.12l-20.23,34Z"/>
        <path class="cls-2" d="M268.73,381.64h2.86v37.85c0,14.33,5.4,20.23,18.63,20.23s18.55-5.9,18.55-20.23V381.64h2.87v37.85c0,16-6.41,22.85-21.42,22.85s-21.49-6.83-21.49-22.85Z"/>
      </g>
    </g>
  </g>
  <g>
    <path class="cls-3" d="M0,197.07H.22c3.62-.08,7.24,0,10.86,0,2.55,0,5.11,0,7.66,0h7.73c2,0,4.07,0,6.1,0H47.86c2.81,0,5.63,0,8.44,0l.18,0a.71.71,0,0,1,.42.36.78.78,0,0,0,.17.26c.94,1.18,1.8,2.41,2.69,3.62l1.11,1.51c.75,1,1.47,2,2.22,3a.91.91,0,0,0,.09.17.35.35,0,0,0,0,.08l.07.07c.39.49.77,1,1.12,1.51a.49.49,0,0,0,.14.24c.65.74,1.19,1.57,1.78,2.35.89,1.18,1.76,2.38,2.64,3.58.73,1,1.46,2,2.2,3s1.7,2.34,2.58,3.48c.21.27.41.55.61.83a.87.87,0,0,0,.07.17.35.35,0,0,1,0,.08l.06.06a1,1,0,0,1,.19.27,1.12,1.12,0,0,0,.16.22,6.55,6.55,0,0,1,.79,1,.39.39,0,0,0,.14.23A21.5,21.5,0,0,1,77.2,225a3.85,3.85,0,0,1,.38.52.83.83,0,0,0,.15.23.43.43,0,0,1,.15.28.14.14,0,0,1,0,.08l-2.67-1c-.92-.34-1.83-.71-2.75-1-.75-.27-1.48-.57-2.23-.82s-1.33-.51-2-.76l-2.13-.78c-.68-.26-1.36-.53-2-.78l-2.14-.79-2.33-.86-2.59-1-1.69-.64-2-.73-2.89-1.08-3.5-1.31-2.73-1-3-1.12c-.92-.34-1.84-.68-2.75-1-1.16-.45-2.34-.83-3.5-1.28s-2.13-.8-3.19-1.2-2.35-.88-3.53-1.31c-.83-.3-1.68-.58-2.5-.91-1.43-.57-2.88-1.08-4.32-1.63-1.15-.44-2.31-.85-3.46-1.27-.76-.28-1.51-.58-2.26-.85-1.11-.41-2.22-.83-3.34-1.23-1.52-.55-3-1.16-4.55-1.72s-3.1-1.11-4.63-1.7c-.91-.35-1.82-.68-2.72-1a1,1,0,0,0-.42-.08Z"/>
    <path class="cls-4" d="M77.83,226.23v-.11a.09.09,0,0,0,0-.05.75.75,0,0,1,.21,0v.14Z"/>
    <path class="cls-5" d="M77.83,168.19v-.06h.22v.08A.15.15,0,0,1,77.83,168.19Z"/>
    <path class="cls-6" d="M77.83,168.19l.21,0,.08.13a1.17,1.17,0,0,0-.56.47Q76,171,74.42,173.08l-3.23,4.39-3.62,4.93c-.93,1.25-1.83,2.52-2.76,3.76-1.33,1.78-2.64,3.57-4,5.36q-1.51,2.05-3,4.13a19.17,19.17,0,0,1-1.17,1.52.12.12,0,0,1-.1,0c-1.13,0-2.25,0-3.38,0H50.8c-1.09,0-2.18,0-3.27,0-1.25,0-2.5,0-3.76,0H.59c-.12,0-.26,0-.37-.07.73-.27,1.47-.53,2.2-.81l3.69-1.37,2.26-.85,3-1.11,2.92-1.1c1.15-.43,2.3-.87,3.46-1.28s2.32-.88,3.49-1.3c.76-.27,1.51-.55,2.26-.84l3.42-1.29,3.5-1.27c.81-.3,1.61-.62,2.42-.93l3-1.11,3.29-1.22c.74-.26,1.48-.56,2.23-.82l1.79-.67,2.36-.88L48.77,179l2.16-.8L54.29,177l2.13-.78,2.76-1,2.16-.81,2.09-.78,1.83-.69,2.14-.77,2.12-.8,2.63-1,4.19-1.56Z"/>
    <path class="cls-7" d="M56.56,197.15h.09a.78.78,0,0,1,.44-.11h48.08a2,2,0,0,1,.42,0c.11,0,.13.09,0,.18l-.6.65-2.35,2.45-2,2.07c-1.24,1.29-2.49,2.58-3.73,3.88-.64.67-1.27,1.34-1.91,2s-1.42,1.49-2.13,2.22c-1.14,1.19-2.29,2.36-3.4,3.56-.54.57-1.08,1.12-1.61,1.69-.69.75-1.42,1.48-2.12,2.22l-2.6,2.71-2.86,3c-.65.68-1.3,1.37-2,2a2.82,2.82,0,0,0-.33.36.18.18,0,0,1-.21,0c0-.12-.11-.17-.16-.27a1.48,1.48,0,0,0-.13-.21l-1.43-1.92a2.48,2.48,0,0,0-.36-.44,1.59,1.59,0,0,1-.13-.22L74.84,222c-.06-.07-.09-.15-.15-.21l-.21-.29-.07-.07h0s0-.1-.07-.14c-.52-.72-1.06-1.42-1.58-2.14s-1.12-1.45-1.64-2.21-1.08-1.46-1.61-2.19c-.36-.5-.73-1-1.09-1.48s-.8-1.08-1.19-1.63S66.41,210.5,66,210L64.8,208.3c-.1-.14-.21-.26-.31-.39l-.14-.22-1.14-1.56-.07-.08h0s0-.1-.07-.14c-.52-.64-1-1.33-1.48-2-.27-.34-.5-.71-.79-1s-.3-.44-.47-.66c-.47-.6-.89-1.24-1.37-1.84-.27-.34-.49-.71-.75-1.06-.4-.54-.81-1.07-1.21-1.6l-.14-.22Z"/>
    <path class="cls-8" d="M105.59,197.06a.18.18,0,0,1-.18.08H56.65a15,15,0,0,1,1.09-1.52c.44-.61.9-1.21,1.35-1.81s.76-1.08,1.17-1.6.8-1.12,1.22-1.67.7-1,1.05-1.46.8-1,1.18-1.58c.24-.35.54-.65.75-1a6,6,0,0,1,.65-.87c.29-.34.51-.73.79-1.08s.67-.93,1-1.39l1.17-1.55c.19-.26.36-.53.56-.77s.49-.66.72-1,.54-.66.76-1a6.44,6.44,0,0,1,.63-.85c.2-.22.31-.49.51-.71.52-.6.92-1.31,1.44-1.92.23-.28.38-.62.61-.9s.49-.61.71-.93l1.3-1.76c.22-.29.47-.56.67-.87.37-.59.83-1.11,1.21-1.69.17-.25.36-.49.56-.73s.22-.12.36-.09c.49.44.92.95,1.38,1.42.68.7,1.36,1.4,2,2.11l2.25,2.36c.75.78,1.51,1.55,2.24,2.34l1.68,1.77c.73.75,1.44,1.51,2.18,2.26s1.24,1.29,1.85,1.94l2.17,2.28,2.29,2.4c.87.91,1.75,1.81,2.63,2.72,1.14,1.19,2.29,2.38,3.43,3.58s2.19,2.3,3.3,3.44A.42.42,0,0,1,105.59,197.06Z"/>
    <path class="cls-3" d="M152.88,197.08c.1,0,.11.08,0,.13s-.18.07-.24.14c-.68.22-1.31.56-2,.83s-1.37.59-2.05.9l-3.57,1.56-2.9,1.26-3.34,1.48L136,204.64l-2.81,1.21-2.17,1-2.48,1.08-2,.89L123.81,210l-2.46,1.08-2.57,1.13c-1.92.84-3.84,1.67-5.75,2.52-1.64.71-3.27,1.44-4.91,2.16l-3.87,1.7c-1.34.58-2.66,1.18-4,1.75s-2.66,1.17-4,1.74-2.77,1.23-4.15,1.84c-.84.37-1.69.72-2.54,1.08l-1.55.7a3.89,3.89,0,0,1-.53.21c-.1,0-.2.18-.3,0,.41-.53.92-1,1.36-1.45.26-.3.55-.57.83-.86.53-.57,1.07-1.13,1.61-1.69l1.1-1.15c.53-.55,1.05-1.11,1.58-1.67l1.45-1.52,1.43-1.47c.66-.69,1.31-1.39,2-2.08s1.33-1.34,2-2,1.14-1.16,1.68-1.77c.1-.07.15-.18.24-.26.46-.42.86-.9,1.3-1.35,1.25-1.3,2.49-2.62,3.74-3.92.56-.58,1.13-1.15,1.68-1.73s.88-.92,1.32-1.39l1.51-1.58,1.69-1.77c.33-.34.66-.67,1-1a3.79,3.79,0,0,1,1.16-.09h28.73c2.54,0,5.08,0,7.63,0A6.64,6.64,0,0,0,152.88,197.08Z"/>
    <path class="cls-6" d="M152.88,197.08c-.09.12-.22.06-.33.06H140.72c-1.41,0-2.81,0-4.22,0h-7.11c-1.36,0-2.72,0-4.08,0s-2.82,0-4.23,0h-3.26c-1,0-2,0-3,0a1,1,0,0,1-.25,0c-.66-.69-1.34-1.37-2-2.06-1.12-1.2-2.27-2.37-3.39-3.57-.92-1-1.89-1.91-2.81-2.9-.68-.73-1.38-1.45-2.06-2.18-.88-.95-1.8-1.87-2.7-2.81s-1.76-1.83-2.63-2.75l-2.54-2.66c-.93-1-1.89-2-2.83-2.95-.72-.75-1.43-1.51-2.14-2.26s-1.36-1.37-2-2.09-1.53-1.57-2.26-2.39c0,0-.09-.11-.17-.11l-.1-.21.9.37,2.4,1.06L93,170.84l1.78.78L98,173c1.11.48,2.22.94,3.32,1.43s2.13,1,3.21,1.43l3.84,1.67c1.22.53,2.45,1,3.67,1.6l3.57,1.57c1.21.52,2.42,1.06,3.63,1.6l3.51,1.53c1.29.57,2.58,1.11,3.86,1.69s2.39,1,3.58,1.57l3.57,1.57c.9.39,1.79.8,2.69,1.2l3,1.3c.89.39,1.78.81,2.68,1.21l2.37,1,3.31,1.47,2.37,1,2.56,1.14Z"/>
    <path class="cls-9" d="M87.17,225.87c.1.09.2,0,.3,0a.78.78,0,0,1-.48.2C87,226,87.06,225.88,87.17,225.87Z"/>
    <path class="cls-10" d="M102.39,209.91a.32.32,0,0,1-.24.26A.37.37,0,0,1,102.39,209.91Z"/>
    <path class="cls-11" d="M56.86,197.5a.21.21,0,0,1,.14.22A.22.22,0,0,1,56.86,197.5Z"/>
    <path class="cls-12" d="M64.35,207.69a.24.24,0,0,1,.14.22A.22.22,0,0,1,64.35,207.69Z"/>
    <path class="cls-12" d="M74.69,221.74a.23.23,0,0,1,.15.21A.23.23,0,0,1,74.69,221.74Z"/>
    <path class="cls-12" d="M75.63,223a.23.23,0,0,1,.13.22A.2.2,0,0,1,75.63,223Z"/>
    <path class="cls-13" d="M77.55,225.59a.19.19,0,0,1,.13.21A.21.21,0,0,1,77.55,225.59Z"/>
    <path class="cls-14" d="M63.07,205.91a.15.15,0,0,1,.07.14C63.07,206,63.06,206,63.07,205.91Z"/>
    <path class="cls-14" d="M74.34,221.24a.15.15,0,0,1,.07.14C74.34,221.35,74.34,221.3,74.34,221.24Z"/>
    <path class="cls-14" d="M63.14,206.05a.11.11,0,0,1,.07.08Z"/>
    <path class="cls-14" d="M74.41,221.38a.1.1,0,0,1,.07.07Z"/>
  </g>
  <g>
    <path class="cls-15" d="M251.21,178.38l1.58.6,1.47.53,1.75.66,2,.75,2,.77,2.36.85,1.41.54,1.53.57c.67.26,1.34.5,2,.75l1.35.5,1.39.53,2,.72,1.56.6,2.1.76.84.32,2.21.83c.64.24,1.27.49,1.91.71.48.16.94.37,1.42.53s.9.34,1.35.51l1.45.53,1.39.52c.47.19,1,.35,1.42.53l1.55.58,1.76.64,1.39.53,1.13.42,2.2.82,1.35.5,1.91.71,2.15.8,1.53.58.23.06v.05s-.09.06-.15,0H265.52a.49.49,0,0,1-.17,0,.53.53,0,0,1-.27-.22c-.39-.54-.81-1.07-1.19-1.62-.64-.9-1.33-1.77-2-2.67a.59.59,0,0,0-.1-.17,4.38,4.38,0,0,1-.52-.7.42.42,0,0,0-.11-.15c-.84-1.09-1.65-2.21-2.46-3.32-.47-.65-1-1.29-1.44-1.94-.23-.33-.48-.65-.7-1a1.13,1.13,0,0,0-.1-.13c-.5-.65-1-1.31-1.47-2a.34.34,0,0,0-.1-.16c-.18-.23-.36-.46-.52-.7a.44.44,0,0,0-.1-.16c-.49-.58-.9-1.21-1.36-1.81-.59-.78-1.15-1.58-1.74-2.36-.06-.08-.16-.15-.1-.27A.09.09,0,0,1,251.21,178.38Z"/>
    <path class="cls-4" d="M251.21,178.38h-.09a.1.1,0,0,1-.13,0v-.07h.14Z"/>
    <path class="cls-16" d="M245,217l-.1-.09s0-.06.06-.06.07.09.09.15Z"/>
    <path class="cls-5" d="M251.11,217V217H251v-.09C251,216.89,251.07,216.94,251.11,217Z"/>
    <path class="cls-17" d="M251.11,217l-.14,0c-.37-.4-.75-.81-1.13-1.2-.56-.58-1.12-1.15-1.67-1.73s-1.25-1.29-1.86-1.94c-.76-.81-1.53-1.6-2.29-2.41s-1.65-1.71-2.48-2.57l-1.45-1.54c-.48-.51-1-1-1.45-1.51l-1.33-1.38c-.64-.68-1.29-1.35-1.94-2l-1.64-1.72c-.37-.39-.76-.77-1.11-1.18-.05-.11,0-.13.11-.15a1.08,1.08,0,0,1,.31,0h31.73a.9.9,0,0,1,.4,0c.12.07.09.15,0,.24s-.3.43-.46.64c-.37.48-.72,1-1.08,1.47l-.83,1.12c-.35.49-.71,1-1.07,1.45l-1.55,2.1q-.73,1-1.44,2l-1.92,2.59L255,211.7l-2.31,3.13c-.44.6-.89,1.19-1.31,1.8a4,4,0,0,1-.27.31A0,0,0,0,1,251.11,217Z"/>
    <path class="cls-18" d="M265.24,197.68a.27.27,0,0,0-.18,0H232.73a.1.1,0,0,0-.11.09c-.13-.06,0-.13,0-.18l.36-.38c.4-.4.79-.81,1.17-1.22s.95-1,1.43-1.48l1.29-1.34,1.48-1.56L239.9,190c.51-.53,1-1.06,1.53-1.6l2.08-2.19,1.19-1.23,1.32-1.38,1.35-1.42c.5-.51,1-1,1.48-1.55l2-2.07.14-.16a.13.13,0,0,1,.13,0,1.44,1.44,0,0,0,.25.39c.37.51.75,1,1.13,1.51l.91,1.23.94,1.29a.67.67,0,0,1,.09.14l.53.71a1.19,1.19,0,0,1,.09.15l1.49,2s.05.07.08.1c.17.24.34.48.52.71s.45.62.67.93.36.45.53.7.3.38.43.58.35.48.52.73.54.71.79,1.08c.13.19.28.38.42.57s.32.44.49.66a3.76,3.76,0,0,0,.25.31l.09.14.53.71.09.15c.19.22.36.46.53.69s.25.38.39.55l.62.84c.36.48.71,1,1.07,1.46.2.27.42.53.6.81a.67.67,0,0,0,.18.16A.08.08,0,0,1,265.24,197.68Z"/>
    <path class="cls-15" d="M201.14,197.72c-.14,0-.15,0-.09-.12a6.77,6.77,0,0,0,.88-.36l1.69-.74,1.21-.54,1.47-.64,2.65-1.16,1.82-.79c.82-.35,1.63-.73,2.45-1.07l2.36-1,2.69-1.18,2.56-1.12,2.53-1.12,1.91-.83,2.45-1.07,2.51-1.1,2.12-.94,1.68-.72,2.12-1,2.19-.95,1.58-.7,1.48-.64,1.92-.84c.44-.19.88-.4,1.33-.57,0,0,.07,0,.1,0l0,0c.05,0,.1,0,.1.05h0l0,.05c-.25.32-.55.58-.82.88s-.53.54-.79.81l-.8.84-.83.87-1.5,1.58-1.18,1.23c-.43.45-.88.89-1.31,1.35s-.69.73-1,1.1l-1.49,1.57c-.6.63-1.19,1.26-1.8,1.88-.4.4-.8.81-1.19,1.22s-.9.93-1.33,1.41-.69.72-1,1.08-.61.64-.91.95-.75.77-1.12,1.15l-1.06,1.14,0,0a.74.74,0,0,1-.44,0h-25Z"/>
    <path class="cls-19" d="M201.14,197.72a.77.77,0,0,1,.54-.06h1.43c.62,0,1.24,0,1.87,0h21a2.57,2.57,0,0,1,.68,0l1,1,1.51,1.58c.36.37.71.75,1.06,1.12l1.18,1.22,1.08,1.15.77.8,1.6,1.67,1.68,1.75,1.11,1.18,2,2.08,1.46,1.54,1.77,1.83,1.38,1.46c.26.28.53.55.8.83l-.06.06-1.15-.5-1.05-.47-1.28-.56-1.1-.49-1.28-.56-1.32-.57-1-.46-1.56-.68-1.58-.7-2.25-1-1.52-.67-1.62-.71-1.82-.79c-.9-.39-1.8-.81-2.7-1.19s-1.78-.78-2.67-1.16l-2.38-1c-.79-.35-1.57-.7-2.36-1l-1.8-.8-2-.87-2.21-1c-.52-.23-1-.44-1.56-.68s-.76-.34-1.14-.51c-.54-.25-1.1-.47-1.64-.72L204,199l-1.93-.84Z"/>
    <path class="cls-20" d="M244.88,178.52a.16.16,0,0,0-.1-.05.27.27,0,0,1,.24-.09A.18.18,0,0,1,244.88,178.52Z"/>
    <path class="cls-20" d="M244.75,178.49a.13.13,0,0,1-.1,0A.08.08,0,0,1,244.75,178.49Z"/>
    <path class="cls-20" d="M244.84,178.58l0-.05A.05.05,0,0,1,244.84,178.58Z"/>
    <path class="cls-19" d="M265.24,197.68h.11l1.48,0h10.78c.56,0,1.12,0,1.69,0s1.06,0,1.59,0h19.95c.53,0,1.07,0,1.6,0,.12,0,.26-.07.37.05l-2.08.78c-.7.26-1.41.51-2.11.78l-3,1.14-2.79,1-2,.73-2.46.93-1.37.5-1.46.55-1.89.7-2.15.8-1.77.66-2.93,1.08L274,208.46l-2.47.91-2.52.94-3.15,1.17-2.46.92-2.53.94-2.12.8-2.31.85c-.72.26-1.43.55-2.15.81l-1.37.51-1.59.58a.32.32,0,0,1-.19.05.2.2,0,0,1,.06-.15c.38-.45.7-.94,1-1.41s.5-.68.75-1,.48-.67.74-1c.36-.47.73-.93,1.05-1.42s.65-.84.93-1.3c.13-.2.3-.38.44-.58.25-.36.53-.71.78-1.07.12-.18.27-.35.4-.53a7.74,7.74,0,0,1,.55-.73c.2-.23.34-.5.53-.74.33-.42.63-.87,1-1.29s.45-.59.66-.89.56-.75.82-1.14.44-.58.64-.87.52-.69.78-1l.34-.48c.16-.23.34-.44.5-.68s.35-.44.5-.68.28-.38.42-.57l.54-.74C264.8,198.31,265,198,265.24,197.68Z"/>
    <path class="cls-21" d="M254.44,183a.15.15,0,0,1-.09-.14A.12.12,0,0,1,254.44,183Z"/>
    <path class="cls-21" d="M255.06,183.81a.16.16,0,0,1-.09-.15A.14.14,0,0,1,255.06,183.81Z"/>
    <path class="cls-22" d="M261.34,192.31a.13.13,0,0,1-.09-.14A.14.14,0,0,1,261.34,192.31Z"/>
    <path class="cls-22" d="M262,193.17a.16.16,0,0,1-.09-.15A.16.16,0,0,1,262,193.17Z"/>
    <path class="cls-23" d="M256.63,185.9c-.06,0-.09,0-.08-.1A.14.14,0,0,1,256.63,185.9Z"/>
  </g>
  <g>
    <path class="cls-24" d="M213.44,136.1l1.61-.74,2.13-1,3.1-1.41c.69-.32,1.38-.67,2.08-1s1.53-.7,2.31-1c.5-.21,1-.46,1.47-.69,1.05-.49,2.11-1,3.17-1.44.77-.35,1.56-.68,2.32-1s1.78-.8,2.66-1.22l1.73-.8c.58-.27,1.17-.52,1.74-.79l2.39-1.1c.62-.27,1.24-.54,1.85-.83s1.4-.64,2.09-1c.42-.21.87-.4,1.3-.59.77-.34,1.53-.71,2.29-1.06.45-.21.91-.4,1.36-.6l1.77-.81,1.72-.78,1.8-.82,1.81-.83c.74-.34,1.5-.68,2.24-1a.82.82,0,0,1,.3-.1c.08,0,.08,0,0,.1a2.79,2.79,0,0,1-.35.42l-23.12,23.11a1.08,1.08,0,0,1-.4.33,11.16,11.16,0,0,1-1.14-.16c-1.25-.18-2.49-.37-3.74-.57l-4-.61-3.47-.53-3.12-.48-3.39-.52c-.77-.11-1.54-.22-2.31-.35C213.57,136.16,213.49,136.16,213.44,136.1Z"/>
    <path class="cls-25" d="M234.83,139.35l2.73-2.72,8.47-8.46q5.34-5.32,10.65-10.66c.67-.66,1.31-1.35,2-2a15.9,15.9,0,0,1-.76,1.69c-.21.42-.37.87-.57,1.3-.38.85-.78,1.7-1.17,2.56-.29.65-.57,1.31-.87,2-.43.9-.85,1.8-1.26,2.71l-.75,1.64c-.45,1-.89,1.91-1.33,2.87-.37.81-.72,1.62-1.1,2.43-.3.64-.59,1.3-.9,1.94-.2.42-.39.86-.58,1.28-.34.76-.7,1.52-1,2.28s-.67,1.48-1,2.23l-1.44,3.14c-.34.74-.66,1.48-1,2.21-.27.57-.53,1.14-.79,1.72-.44,1-.92,2-1.37,2.94-.36.79-.69,1.59-1.05,2.37l-1,2.22c-.46,1-.91,2-1.37,3l-1.17,2.54a.41.41,0,0,1,0,.09.8.8,0,0,1-.17-.51c-.21-1.47-.44-2.93-.66-4.4-.18-1.24-.38-2.48-.57-3.72-.26-1.67-.52-3.34-.77-5-.21-1.45-.44-2.91-.66-4.37-.14-.95-.29-1.91-.44-2.87a1.31,1.31,0,0,0-.1-.32C234.69,139.37,234.78,139.38,234.83,139.35Z"/>
    <path class="cls-26" d="M234.83,139.35l-.11.11c0,.08,0,.13-.07.19l-.24.23L214.31,160a1.71,1.71,0,0,1-.2.18c-.14,0-.13,0-.13-.15l-.06-1.88,0-2.21-.06-2c0-.89,0-1.78-.06-2.67,0-.71-.05-1.42-.06-2.12,0-.94,0-1.88-.05-2.83,0-.71,0-1.43,0-2.15,0-.89,0-1.77-.05-2.66s-.06-1.94-.08-2.91c0-.69,0-1.38,0-2.07,0-.15-.1-.31,0-.46l1.66.25c1.12.15,2.23.33,3.34.49.95.13,1.89.29,2.83.43,1.18.17,2.36.38,3.54.56,1,.15,2,.28,3,.44,1.31.2,2.61.42,3.92.63C232.78,139.06,233.81,139.2,234.83,139.35Z"/>
    <path class="cls-27" d="M214.11,160.17c0-.15.14-.21.22-.3q10.08-10.08,20.15-20.15l.24-.26c.25.16.17.44.21.66.13.81.27,1.62.38,2.43s.26,1.68.37,2.52.27,1.73.4,2.59c.19,1.27.38,2.53.58,3.8s.37,2.47.56,3.71c.23,1.42.46,2.85.67,4.27.06.42.1.83.19,1.24,0,0-.07,0-.12,0l-3.51-.08c-.73,0-1.46,0-2.19,0s-1.71,0-2.56-.06-1.48,0-2.21-.05c-1,0-2,0-3-.06-.79,0-1.58,0-2.37-.05s-1.49,0-2.23-.06-1.4,0-2.1-.05c-.86,0-1.73-.05-2.59-.05A3.75,3.75,0,0,1,214.11,160.17Z"/>
    <path class="cls-24" d="M194.2,180.14c-.07.07-.18.1-.24,0s0-.14.06-.21c.34-.86.67-1.72,1-2.57.25-.63.51-1.25.74-1.88s.53-1.33.77-2,.55-1.41.83-2.11.61-1.5.88-2.27.47-1.24.72-1.86.44-1.19.7-1.78c.16-.36.29-.74.43-1.11.28-.71.59-1.41.84-2.13l.42-1.11c.36-.93.74-1.86,1.1-2.79.24-.61.47-1.22.7-1.83.3-.77.6-1.54.91-2.32s.6-1.51.89-2.27.64-1.65,1-2.47c.25-.63.52-1.25.75-1.88s.49-1.28.74-1.92.53-1.35.8-2c.34-.88.67-1.77,1-2.65.13-.34.27-.69.42-1,.05.93.06,1.86.08,2.79,0,.67,0,1.35.05,2s0,1.35,0,2c0,1,0,2,.07,3l0,1.75c0,.47,0,.94,0,1.42s0,1.21,0,1.82,0,1,0,1.44c0,1.07,0,2.14.07,3.21,0,.87,0,1.74.08,2.62,0,.53,0,1.08,0,1.62a.47.47,0,0,0,.05.26c0,.17-.14.25-.23.35l-10.66,10.66-4.93,4.93A.67.67,0,0,0,194.2,180.14Z"/>
    <path class="cls-25" d="M194.2,180.14c-.15,0-.06-.09,0-.13l.7-.69,8.06-8.06,7.27-7.26,0-.07a7.71,7.71,0,0,0,1.27,0c.87,0,1.75,0,2.62.06l2.6.06c.88,0,1.77.06,2.66.08s1.59,0,2.37,0,1.46,0,2.19.07,1.34,0,2,0c1,0,2,.05,3,.07.67,0,1.35,0,2,0,.9,0,1.81,0,2.71.08a2.53,2.53,0,0,1,.47,0c-.36.11-.7.27-1.05.41-1,.4-2,.78-2.95,1.15s-1.87.73-2.81,1.08c-.79.29-1.57.61-2.35.92l-2.74,1.09-3.21,1.23c-.69.27-1.37.56-2.06.81s-1.36.52-2,.79-1.3.49-1.94.76-1.21.47-1.81.7-1.43.57-2.15.84c-1.11.42-2.21.89-3.33,1.29-.74.27-1.46.58-2.18.87l-2,.78c-.7.27-1.42.52-2.13.8-.86.34-1.71.7-2.57,1l-1.13.43C195.28,179.75,194.74,179.94,194.2,180.14Z"/>
  </g>
  <g>
    <path class="cls-28" d="M129.74,282.75,126,284.44c-1.11.51-2.21,1.05-3.32,1.56s-2.3,1-3.43,1.54c-1.49.7-3,1.36-4.49,2-.76.36-1.53.71-2.3,1-1.08.47-2.14,1-3.21,1.5l-2.08.94-3.12,1.4c-1.23.55-2.46,1.12-3.68,1.68s-2.51,1.15-3.76,1.74-2.5,1.21-3.78,1.74-2.4,1.1-3.61,1.63-2.2,1-3.3,1.51-2.28,1-3.42,1.54L78.77,306c-1.06.48-2.13,1-3.18,1.46l-4,1.81L65.77,312c-1.19.54-2.39,1.07-3.58,1.62l-2.62,1.2c-.08,0-.2.16-.29,0a.13.13,0,0,1,.06-.18l29.08-29.08L96,278a1.25,1.25,0,0,1,.53-.41,12.07,12.07,0,0,1,1.78.24c1.91.27,3.82.57,5.73.87,1.59.25,3.18.5,4.77.73l5.06.77,3.67.56,4,.61c1.61.24,3.21.48,4.81.74,1,.16,2.06.3,3.08.47C129.48,282.65,129.63,282.63,129.74,282.75Z"/>
    <path class="cls-29" d="M96.47,277.69l-4.25,4.24L79.16,295q-8.35,8.34-16.69,16.7c-.93.93-1.87,1.87-2.82,2.79-.08.08-.13.26-.31.18.41-.92.8-1.84,1.21-2.76.49-1.08,1-2.15,1.5-3.23.62-1.34,1.22-2.67,1.84-4,.72-1.57,1.45-3.13,2.17-4.7.53-1.15,1-2.32,1.56-3.46s1-2.14,1.49-3.22c.39-.83.76-1.68,1.14-2.52,1-2.24,2-4.46,3-6.68.56-1.22,1.15-2.42,1.69-3.65s1.12-2.38,1.64-3.58,1.07-2.36,1.59-3.54,1.09-2.37,1.64-3.56c.71-1.55,1.4-3.11,2.11-4.66l1.68-3.65c.48-1.05.92-2.12,1.44-3.15s1.07-2.35,1.62-3.52.92-2.15,1.44-3.2,1.1-2.41,1.68-3.61,1-2.27,1.53-3.41c0,0,.05,0,.08-.08a1.92,1.92,0,0,1,.27,1c.34,2.35.72,4.7,1.08,7.05l.6,4c.25,1.6.49,3.2.74,4.8s.48,3.18.72,4.77c.18,1.19.35,2.39.54,3.58q.45,2.85.88,5.69a9.88,9.88,0,0,0,.39,2.09C96.7,277.67,96.55,277.65,96.47,277.69Z"/>
    <path class="cls-30" d="M96.47,277.69l.17-.16c0-.13,0-.21.12-.29s.24-.25.36-.37l31.27-31.27a2.21,2.21,0,0,1,.32-.29c.33,0,.2.33.21.48,0,1.45,0,2.91.11,4.37.05,1.22,0,2.45.07,3.67,0,1.63.07,3.27.11,4.91,0,1.82.06,3.65.1,5.48s.12,3.6.15,5.4c0,2,.06,3.95.1,5.93,0,1.59.07,3.18.11,4.77,0,.81,0,1.62.07,2.43l-2.58-.38c-1.74-.23-3.46-.52-5.2-.77-1.47-.21-2.93-.45-4.4-.67-1.83-.27-3.67-.59-5.5-.87-1.57-.24-3.15-.44-4.71-.68l-6.1-1C99.66,278.15,98.06,277.93,96.47,277.69Z"/>
    <path class="cls-31" d="M128.71,245.31c0,.23-.22.33-.36.46Q112.69,261.46,97,277.12l-.37.41c-.38-.23-.27-.66-.32-1q-.31-1.94-.6-3.87c-.17-1.15-.35-2.3-.53-3.45-.22-1.49-.43-3-.66-4.45-.3-2-.61-4-.91-5.94l-.87-5.73c-.35-2.22-.71-4.43-1-6.65-.1-.66-.19-1.33-.29-2a17.22,17.22,0,0,1,1.9,0c1,.05,2,0,2.94,0,1.48.05,3,0,4.44.09,1.19.05,2.38,0,3.56.08s2.52,0,3.78.09,2.41,0,3.62.08c1.4.05,2.81,0,4.21.09,1.19.05,2.38,0,3.56.08s2.53,0,3.78.09,2.44.05,3.66.09A8,8,0,0,1,128.71,245.31Z"/>
    <path class="cls-28" d="M159.67,214.24c.09-.09.21-.13.3,0s0,.26,0,.39l-1.41,3.57c-.45,1.13-.93,2.25-1.33,3.41-.33.92-.73,1.82-1.07,2.74-.42,1.13-.88,2.24-1.32,3.36l-1.62,4.16c-.38,1-.75,2-1.16,2.94s-.76,2-1.17,3.06-.79,1.95-1.16,2.93c-.53,1.43-1.13,2.84-1.65,4.28-.41,1.11-.87,2.2-1.3,3.3-.52,1.33-1,2.68-1.55,4-.4.95-.75,1.91-1.13,2.86-.29.7-.55,1.41-.81,2.13-.47,1.27-1,2.53-1.5,3.8-.3.75-.59,1.51-.89,2.27-.52,1.33-1,2.66-1.55,4s-1.13,3-1.71,4.44c-.51,1.31-1,2.6-1.57,3.9-.13.33-.23.68-.36,1.07a2.75,2.75,0,0,1-.12-1.28c0-1.52-.08-3-.08-4.55s-.08-3.15-.12-4.72c0-1,0-2,0-3,0-1.38-.08-2.77-.11-4.16,0-1.09,0-2.19-.05-3.28,0-1.53-.09-3.06-.13-4.59s0-3.1-.08-4.65c0-.85-.06-1.7-.08-2.56,0-1.32,0-2.64-.07-4a4.38,4.38,0,0,0-.08-.62c0-.28.23-.41.4-.58L142,232l17.33-17.34C159.45,214.54,159.62,214.44,159.67,214.24Z"/>
    <path class="cls-29" d="M159.67,214.24c.23,0,.1.14,0,.21l-1.09,1.08-12.54,12.53-11,11-.41.43a15.25,15.25,0,0,0-2-.08c-1.85-.08-3.71-.06-5.56-.16-1.09,0-2.19,0-3.29,0-.89,0-1.78-.06-2.67-.07-1.58,0-3.16,0-4.73-.11s-3.09,0-4.64-.13c-1-.08-2,0-3,0-1.22-.06-2.45,0-3.67-.07s-2.21,0-3.32-.1c-1.35-.07-2.71,0-4.07,0a.45.45,0,0,1-.38-.12c1.2-.34,2.31-.84,3.44-1.28L104,236l5.13-2c1.62-.62,3.24-1.27,4.85-1.89s3.23-1.22,4.82-1.89c1-.41,2-.77,2.94-1.17,1.35-.54,2.72-1,4.07-1.59,1.54-.6,3.08-1.2,4.63-1.78,1.8-.68,3.58-1.41,5.38-2.09,1.63-.6,3.25-1.25,4.86-1.89l6.06-2.37c1.59-.62,3.17-1.25,4.77-1.85s3.28-1.26,4.91-1.92C157.47,215.08,158.57,214.65,159.67,214.24Z"/>
  </g>
  <g>
    <path class="cls-32" d="M252.77,240.11c.49,1.07,1,2.15,1.46,3.22.63,1.37,1.28,2.73,1.91,4.1s1.19,2.71,1.81,4.06c.55,1.17,1.08,2.34,1.61,3.51.36.81.72,1.61,1.09,2.4.55,1.18,1.09,2.37,1.63,3.55.66,1.44,1.32,2.87,2,4.31.58,1.26,1.15,2.52,1.73,3.79s1.06,2.34,1.61,3.51,1.2,2.6,1.81,3.89,1.2,2.71,1.82,4.06l1.65,3.61c.36.79.73,1.57,1.09,2.36.8,1.75,1.62,3.5,2.42,5.25.6,1.33,1.16,2.68,1.79,4,.48,1,.93,2,1.38,3a10.23,10.23,0,0,1,.72,1.62c.05.17.05.17-.16.12l-18.24-18.24L248.76,269.1a1.18,1.18,0,0,1-.38-.48,10.89,10.89,0,0,1,.2-1.52q.36-2.48.75-4.92c.21-1.36.43-2.73.63-4.09s.43-2.89.65-4.34c.16-1,.33-2.09.49-3.14s.35-2.27.52-3.4c.21-1.37.41-2.75.63-4.12.14-.88.26-1.76.41-2.64C252.68,240.33,252.67,240.2,252.77,240.11Z"/>
    <path class="cls-33" d="M248.43,268.62l3.64,3.65,11.2,11.22,14.3,14.28,2.39,2.41c.07.07.22.11.15.27l-2.41-1.07-3-1.36c-.9-.41-1.8-.84-2.7-1.26l-2.9-1.3-3.26-1.5L262,292.21c-1.17-.54-2.35-1.06-3.52-1.61-1.34-.63-2.7-1.23-4-1.85-.95-.44-1.9-.88-2.86-1.3-1.31-.57-2.58-1.24-3.89-1.81-1-.44-2-.92-3-1.36s-1.82-.83-2.71-1.27c-.66-.33-1.36-.59-2-.9-.86-.41-1.72-.8-2.58-1.2-.65-.31-1.31-.58-2-.89-.91-.43-1.85-.82-2.76-1.27s-2.12-1-3.18-1.44l-2.69-1.23-3.12-1.41c-.88-.4-1.74-.83-2.61-1.24-.34-.16-.69-.29-1-.43,0-.21.21-.18.34-.2,1.6-.26,3.21-.47,4.81-.74,1.41-.23,2.82-.43,4.23-.65s3-.45,4.55-.69l5.39-.83c1.56-.22,3.11-.48,4.67-.7l3.86-.59a1.47,1.47,0,0,0,.42-.13C248.41,268.43,248.4,268.56,248.43,268.62Z"/>
    <path class="cls-34" d="M248.43,268.62l-.13-.14c-.12,0-.18,0-.26-.1l-.31-.31-26.81-26.81-.25-.27c.07-.24.29-.2.45-.2,1.18,0,2.36,0,3.54-.08.74-.05,1.48,0,2.23,0,.94,0,1.88-.11,2.82-.09s1.86,0,2.8,0c1.32,0,2.64-.1,4-.1.83,0,1.67,0,2.51,0,1.27,0,2.53-.12,3.8-.11s2.52,0,3.78-.06c1,0,2-.06,3-.07a26.78,26.78,0,0,1,2.69,0c.19,0,.37-.08.56,0-.11.74-.23,1.47-.33,2.21-.2,1.49-.44,3-.66,4.46-.18,1.25-.39,2.51-.57,3.76-.23,1.58-.5,3.15-.74,4.73-.21,1.34-.38,2.69-.59,4-.27,1.75-.57,3.49-.84,5.23C248.83,265.89,248.64,267.26,248.43,268.62Z"/>
    <path class="cls-35" d="M220.67,241c.19,0,.28.18.4.3L248,268.16l.35.32c-.22.33-.59.23-.89.28-1.07.18-2.16.36-3.24.5s-2.24.36-3.36.5-2.3.35-3.45.53l-5.06.77-5,.76c-1.9.29-3.8.6-5.7.88l-1.47.21c-.07,0-.14,0-.18.09a.09.09,0,0,1-.11-.1c.11-1.79.08-3.58.15-5.37,0-.87,0-1.73,0-2.59,0-1.18,0-2.36.08-3.54s.07-2.61.1-3.92c0-1.06,0-2.12.05-3.18s.05-2.38.11-3.56.05-2.1.08-3.14,0-2.28.08-3.42c0-1,0-1.92,0-2.88A1.16,1.16,0,0,1,220.67,241Z"/>
    <path class="cls-32" d="M194.05,214.46c-.08-.08-.13-.2-.07-.28s.18,0,.27,0l4,1.57c.84.33,1.69.63,2.53,1l2.71,1.07c.91.36,1.82.69,2.73,1l3.79,1.49,2.75,1.1c.51.2,1,.37,1.55.59.83.35,1.67.68,2.51,1,1.24.46,2.46,1,3.7,1.42.94.34,1.86.74,2.79,1.11,1.14.44,2.3.85,3.43,1.32.81.34,1.64.65,2.45,1,.6.24,1.21.47,1.82.69,1.1.4,2.18.86,3.26,1.28l1.82.71c1.2.47,2.41,1,3.61,1.42s2.53.95,3.79,1.44,2.24.92,3.37,1.37c.26.1.54.17.81.25v.15c-.75,0-1.49,0-2.24,0l-3,0c-1.33,0-2.66.07-4,.08-1.19,0-2.38.08-3.58.11-.92,0-1.84,0-2.76,0s-2.09.05-3.13.08-2.38,0-3.56.07-2.44,0-3.66.09c-1.07.05-2.14.05-3.2.07l-2.59.05a.69.69,0,0,0-.28.08c-.23,0-.33-.19-.46-.32L201,221.33l-6.58-6.58C194.3,214.64,194.21,214.5,194.05,214.46Z"/>
    <path class="cls-33" d="M194.05,214.46c0-.21.12-.09.17,0l.93.93,10.74,10.75,9.69,9.68a.27.27,0,0,0,.08.07,9.52,9.52,0,0,0-.06,1.69c0,1-.07,2-.09,3s0,2.28-.06,3.42,0,2.14-.08,3.22c0,.69,0,1.38-.06,2.08,0,1.23-.08,2.47-.1,3.71,0,1.07-.05,2.15-.06,3.22s-.06,2.34-.09,3.5,0,2.27-.05,3.4-.1,2.24-.1,3.36a13.23,13.23,0,0,0,0,1.41,4.66,4.66,0,0,1-.5-1.2c-.42-1.11-.88-2.21-1.3-3.32-.67-1.77-1.37-3.53-2.05-5.29-.57-1.44-1.13-2.89-1.7-4.33-.36-.93-.73-1.85-1.09-2.78-.45-1.15-.89-2.3-1.34-3.46l-1.24-3.22c-.51-1.3-1-2.59-1.53-3.88-.69-1.76-1.37-3.51-2-5.27l-1.72-4.44c-.37-1-.78-1.95-1.14-2.94-.46-1.22-1-2.43-1.45-3.65-.34-.86-.65-1.73-1-2.59s-.7-1.8-1.06-2.69-.8-2-1.21-3A7.11,7.11,0,0,1,194.05,214.46Z"/>
  </g>
  <g>
    <path class="cls-36" d="M81.52,145.49c-.35-.73-.7-1.47-1-2.21q-1-2.22-2-4.44c-.84-1.84-1.67-3.69-2.51-5.53-.78-1.69-1.6-3.36-2.33-5.07-.39-.9-.84-1.76-1.21-2.67-.43-1.08-1-2.11-1.45-3.16s-.87-1.87-1.3-2.81l-1.45-3.21-1.34-2.93c-.72-1.56-1.43-3.12-2.15-4.67s-1.41-3-2.1-4.54c-1-2.25-2-4.5-3-6.74-.45-1-.87-2-1.34-2.93-.84-1.73-1.59-3.5-2.42-5.23-.39-.81-.72-1.65-1.1-2.47-.67-1.45-1.38-2.87-2-4.33-.75-1.72-1.54-3.43-2.31-5.14-.62-1.37-1.25-2.74-1.88-4.1s-1.14-2.49-1.7-3.73c-.66-1.46-1.34-2.91-2-4.38,0-.06-.16-.15,0-.23a.14.14,0,0,1,.2.08,5.37,5.37,0,0,1,.77.66Q66.28,86.25,86.8,106.77a1.9,1.9,0,0,1,.58.71,17.08,17.08,0,0,1-.27,2q-.48,3.28-1,6.56c-.28,1.81-.57,3.63-.84,5.45s-.58,3.85-.87,5.78c-.21,1.4-.43,2.8-.65,4.19L83.06,136c-.28,1.83-.55,3.66-.84,5.49-.19,1.17-.35,2.35-.55,3.52C81.64,145.2,81.66,145.37,81.52,145.49Z"/>
    <path class="cls-37" d="M87.3,107.47l-4.84-4.86-15-15.06Q58,78.08,48.48,68.62C47.3,67.44,46.07,66.3,45,65.05a27.86,27.86,0,0,1,3,1.36c.71.34,1.45.63,2.17,1l4.69,2.12c1.16.53,2.34,1,3.49,1.56,1.6.76,3.2,1.51,4.82,2.24,1,.43,1.92.86,2.87,1.32,1.19.56,2.39,1.13,3.59,1.68s2.69,1.15,4,1.78,2.58,1.16,3.85,1.79c.74.36,1.51.69,2.26,1,1.31.59,2.62,1.18,3.91,1.81.71.35,1.45.66,2.18,1l4.62,2.08L94,87.37c1.59.73,3.18,1.44,4.75,2.19,1,.48,2,.93,3,1.39,1.77.79,3.52,1.64,5.29,2.45,1.38.63,2.78,1.23,4.17,1.86s2.62,1.23,3.93,1.83c1.79.82,3.6,1.61,5.38,2.45,1.49.71,3,1.39,4.51,2.06l.16.1a1.58,1.58,0,0,1-1,.31c-2.57.36-5.12.78-7.68,1.16q-3.36.49-6.7,1c-3,.46-6,.93-9,1.37-2.57.39-5.14.79-7.72,1.17-1.67.25-3.34.5-5,.77a2.15,2.15,0,0,0-.61.18C87.34,107.73,87.36,107.56,87.3,107.47Z"/>
    <path class="cls-38" d="M87.3,107.47l.19.19c.15,0,.24.06.34.14s.28.27.41.41L124,144a2.83,2.83,0,0,1,.32.37c-.11.38-.46.26-.69.27-1.57,0-3.15,0-4.73.1-.85.07-1.71,0-2.57,0l-3.83.06c-1.75.05-3.51.07-5.27.14s-3.32,0-5,.13c-1.38.06-2.76,0-4.13.08-1.65.08-3.3,0-4.94.13-1,.09-2.12,0-3.17,0l-5.12.14c-1.12,0-2.24,0-3.36.05.15-1,.3-2,.44-2.94.27-2,.59-4,.88-5.94.24-1.68.52-3.35.76-5,.31-2.1.68-4.19,1-6.29.27-1.8.5-3.59.78-5.39.36-2.32.76-4.64,1.12-7C86.78,111.12,87,109.29,87.3,107.47Z"/>
    <path class="cls-39" d="M124.31,144.32c-.26,0-.37-.25-.53-.41L88,108.09c-.14-.15-.31-.28-.46-.43.29-.43.78-.3,1.18-.36,1.43-.24,2.88-.48,4.32-.68s3-.47,4.48-.66,3.07-.47,4.61-.71l6.75-1,6.64-1c2.51-.39,5-.78,7.51-1.15.75-.11,1.5-.19,2.24-.35.24.31,0,.65,0,1,0,1.56-.06,3.13-.09,4.7,0,1,0,2.06-.06,3.09,0,1.68-.1,3.35-.14,5,0,1.11,0,2.21,0,3.31,0,1.91-.09,3.83-.13,5.74,0,1.16,0,2.33-.07,3.48-.09,1.58-.06,3.17-.13,4.75,0,.88,0,1.77-.06,2.65,0,2.17-.08,4.34-.13,6.51C124.38,142.72,124.34,143.52,124.31,144.32Z"/>
    <path class="cls-36" d="M159.82,179.7a.32.32,0,0,1,.05.44c-.11.12-.23-.06-.34-.1l-4.65-1.8c-1.09-.43-2.16-.93-3.28-1.31s-2.43-1-3.66-1.42-2.41-.92-3.61-1.4c-1.37-.53-2.71-1.12-4.09-1.6-1.1-.38-2.17-.84-3.26-1.25s-2.12-.78-3.15-1.25a10.92,10.92,0,0,0-1.56-.6,19.68,19.68,0,0,1-2.33-.89c-1.52-.65-3.1-1.15-4.61-1.82-.56-.26-1.15-.46-1.73-.68-1.2-.47-2.4-1-3.61-1.41-.71-.27-1.4-.58-2.13-.83-1.25-.42-2.46-.95-3.69-1.43s-2.26-.85-3.38-1.32c-1.53-.64-3.09-1.2-4.62-1.81-.84-.34-1.72-.64-2.56-1-1.19-.48-2.41-.92-3.6-1.41-1-.43-2.06-.77-3.07-1.21s-2.19-.87-3.28-1.3-2.29-.91-3.44-1.32c-.64-.23-1.27-.5-1.91-.75l0-.12c1.06,0,2.13,0,3.19,0,1.29,0,2.57-.11,3.86-.11.85,0,1.7-.05,2.55-.06,1.3,0,2.61,0,3.91-.1.73-.05,1.46,0,2.18,0,1.55-.06,3.09-.09,4.63-.16,1.71-.08,3.43,0,5.13-.06,1.28-.08,2.56-.06,3.84-.11s2.4,0,3.61-.08c2-.05,4.11,0,6.17-.16.89-.05,1.79,0,2.69,0a2.8,2.8,0,0,0,.91-.1c.31,0,.44.25.61.43q9.45,9.43,18.89,18.88l8.84,8.83C159.48,179.45,159.6,179.64,159.82,179.7Z"/>
    <path class="cls-37" d="M159.82,179.7c0,.27-.16.11-.23,0-.42-.41-.83-.83-1.24-1.24L144,164.16l-12.92-12.91-.11-.09c.05-.81,0-1.64.07-2.45.05-1,0-2,.07-3.06.08-1.76.09-3.53.12-5.3,0-1.15.05-2.3.07-3.45s.08-2.54.08-3.82c0-.88,0-1.77.08-2.66.08-1.55.06-3.1.14-4.66s0-3.11.06-4.67.09-3.12.14-4.69c0-1.8.11-3.6.13-5.4,0-.8,0-1.59.07-2.39,0,0,0,0,.08-.08a19.33,19.33,0,0,0,.82,2.21c.43,1.1.87,2.19,1.3,3.28s1,2.47,1.43,3.7c.42,1.08.86,2.15,1.28,3.23s.85,2.2,1.27,3.3c.53,1.38,1.06,2.76,1.6,4.14s1,2.44,1.44,3.68.94,2.41,1.39,3.62c.38,1,.8,2.07,1.22,3.09.47,1.18.92,2.37,1.38,3.56l1.5,3.81c.41,1.07.82,2.14,1.24,3.21.5,1.29,1,2.57,1.51,3.86.61,1.56,1.2,3.12,1.83,4.67.42,1.05.81,2.1,1.24,3.14.27.68.53,1.36.79,2,.44,1.13.89,2.25,1.32,3.38s1,2.53,1.44,3.79.92,2.35,1.39,3.52,1,2.54,1.51,3.8C159.3,178.26,159.57,179,159.82,179.7Z"/>
  </g>
  <g>
    <path class="cls-40" d="M176.93,221.22v-.1h.1a10.55,10.55,0,0,0,.55,1.3c.43,1,.88,2.06,1.33,3.09s.88,2,1.31,3q1.17,2.68,2.35,5.37l1.38,3.15c.62,1.44,1.27,2.87,1.9,4.3.76,1.74,1.51,3.48,2.27,5.21l1.89,4.32q1.11,2.52,2.21,5c.71,1.6,1.41,3.19,2.11,4.79.43,1,.84,2,1.27,2.92s1,2.19,1.46,3.28l1.22,2.79,1.41,3.24,1.42,3.24c.31.7.61,1.39.92,2.08,0,.05.06.1,0,.18-.4-.38-.79-.77-1.19-1.14L198.44,275l-2.87-2.75L193,269.68c-.74-.71-1.49-1.41-2.23-2.13s-1.45-1.4-2.19-2.09-1.58-1.49-2.37-2.25-1.37-1.31-2-2l-1.63-1.59-1.59-1.5-1.46-1.38-2.33-2.25a.67.67,0,0,0-.14-.09.4.4,0,0,1-.08-.26v-32A6.43,6.43,0,0,1,176.93,221.22Z"/>
    <path class="cls-40" d="M202.06,286.23a6.61,6.61,0,0,1-.42,1.23c-.44,1.22-.91,2.43-1.36,3.64l-2,5.32c-.79,2.14-1.59,4.27-2.39,6.41l-1.76,4.73c-.67,1.81-1.34,3.61-2,5.42l-2,5.5c-.7,1.87-1.39,3.73-2.09,5.59-.63,1.69-1.25,3.39-1.88,5.08-.69,1.86-1.39,3.71-2.08,5.57l-1.85,5-2.07,5.55q-1,2.56-1.91,5.15L177,353.53s0,.14-.09.11,0-.07,0-.11c0-.54,0-1.09,0-1.63V305.39a4.51,4.51,0,0,1,0-.52.64.64,0,0,1,.27-.41c.85-.58,1.66-1.22,2.49-1.82l2-1.48,2.38-1.75c.47-.33.93-.68,1.39-1s1.17-.87,1.76-1.29c.35-.24.67-.5,1-.74s.91-.67,1.36-1l1.53-1.14,1.18-.85c.47-.35.93-.71,1.41-1.05.76-.55,1.5-1.12,2.26-1.67l2.53-1.85,2-1.48c.49-.37,1-.72,1.48-1.08A.13.13,0,0,1,202.06,286.23Z"/>
    <path class="cls-41" d="M177,304.76v8.83c0,2.57,0,5.14,0,7.71s0,5.3,0,8c0,2.22,0,4.45,0,6.67v17.32c0,.09,0,.2-.06.28-.43-1.16-.87-2.31-1.3-3.47q-.93-2.52-1.88-5.06c-.75-2-1.51-4.05-2.26-6.08l-2.61-7.05c-.58-1.56-1.17-3.11-1.76-4.68l-2-5.31-1.89-5c-.49-1.32-1-2.65-1.45-4q-.95-2.5-1.88-5t-2-5.27c-.76-2-1.53-4.08-2.28-6.12L152.92,289c-.32-.86-.65-1.72-1-2.58a1.6,1.6,0,0,1-.05-.21c.09-.07.15,0,.22,0,.68.53,1.41,1,2.1,1.55s1.34,1,2,1.49,1.14.82,1.7,1.24,1.34,1,2,1.48c.42.32.85.62,1.27.93l1.62,1.19c.44.32.87.66,1.32,1s.77.58,1.16.86c.79.58,1.57,1.17,2.37,1.74s1.66,1.23,2.51,1.84l1.85,1.37c.76.55,1.5,1.12,2.26,1.67s1.64,1.24,2.49,1.81c.09.06.19.12.22.23A.11.11,0,0,1,177,304.76Z"/>
    <path class="cls-42" d="M177,304.76v-.11a1.32,1.32,0,0,1-.08-.59v-41.4a.74.74,0,0,1,.08-.48c.18,0,.26.14.35.24.8.79,1.63,1.56,2.45,2.34.65.61,1.28,1.26,1.92,1.87.82.79,1.66,1.56,2.49,2.35.64.62,1.27,1.25,1.92,1.87s1.11,1,1.66,1.55,1,1,1.48,1.46l1.38,1.29,1.52,1.48c.45.43.91.85,1.35,1.28l1.47,1.4c.48.47,1,.92,1.45,1.38l1.26,1.21c.31.3.63.62,1,.91s.5.5.76.74c.41.41.84.8,1.26,1.21s.91.88,1.38,1.31c.05.06,0,.11,0,.16l-1.29.94-1.57,1.15c-.91.67-1.83,1.33-2.74,2l-1.82,1.37c-.58.43-1.16.86-1.75,1.28s-1.09.81-1.66,1.19c-.34.24-.67.5-1,.77s-.86.58-1.27.91-1,.73-1.48,1.1-.92.66-1.37,1l-1.27.93-1.58,1.17L182,301l-1.41,1c-.43.32-.85.66-1.29,1s-1,.72-1.53,1.12C177.47,304.34,177.13,304.45,177,304.76Z"/>
    <path class="cls-43" d="M177,262.18v42.47c-.3-.21-.62-.41-.9-.65-.48-.39-1-.73-1.49-1.11s-.86-.61-1.28-.92-.65-.46-1-.72-.6-.44-.9-.66l-1.35-1c-.54-.39-1-.8-1.59-1.18s-1.23-.91-1.86-1.35c-.34-.23-.66-.5-1-.74s-.84-.64-1.28-.93-.84-.61-1.26-.92l-1.57-1.16-1.34-1L158.34,291l-1.87-1.38c-.66-.48-1.31-1-2-1.44-.35-.25-.69-.52-1-.78s-.82-.62-1.25-.89c-.11-.08-.16-.24-.33-.23-.06-.21.15-.28.25-.37.48-.49,1-.95,1.5-1.43l2.22-2.13,2.32-2.23c.61-.57,1.21-1.16,1.82-1.72s1.09-1,1.64-1.57l2.48-2.4,3.32-3.17,2.46-2.36,2.61-2.46,3-2.92c.43-.42.87-.83,1.31-1.24C176.87,262.2,176.93,262.2,177,262.18Z"/>
    <path class="cls-41" d="M176.93,221.22a2.05,2.05,0,0,1,0,.78c0,1.8,0,3.6,0,5.4v6q0,3.56,0,7.1c0,2.65,0,5.29,0,7.93,0,1.92,0,3.84,0,5.75,0,.08,0,.15,0,.23l-1.11,1-1.44,1.36-1,1-1.93,1.82-2.33,2.27c-.78.75-1.57,1.47-2.35,2.21l-1.9,1.84-1.61,1.54c-.66.64-1.34,1.26-2,1.91-.44.45-.93.86-1.38,1.3l-1.25,1.21-1.64,1.55-1.5,1.46-1.37,1.29c-.5.48-1,1-1.5,1.44a4.8,4.8,0,0,1-.76.66,8.26,8.26,0,0,1,.49-1.19c.52-1.2,1-2.39,1.57-3.58s1-2.19,1.45-3.29q.94-2.14,1.87-4.29l1.47-3.33,1.75-4c.52-1.2,1-2.39,1.57-3.59l1.41-3.2c.51-1.16,1-2.32,1.54-3.49.62-1.41,1.22-2.83,1.84-4.25l1.3-2.94,2.34-5.34c.69-1.57,1.39-3.14,2.08-4.72l1.71-3.93,1.47-3.3C176.16,223,176.54,222.1,176.93,221.22Z"/>
  </g>
  <g>
    <path class="cls-44" d="M176.8,119.61c-.24,0-.34-.19-.46-.31-1.05-1-2.13-2-3.2-3.06-.86-.8-1.67-1.64-2.52-2.45-1.07-1-2.17-2-3.25-3.07l-2.51-2.45c-.71-.68-1.44-1.33-2.14-2s-1.31-1.28-2-1.92L159,102.67c-.68-.64-1.35-1.3-2-2l-1.77-1.67-1.91-1.84c-.64-.61-1.3-1.2-1.93-1.82s-1.31-1.28-2-1.92-1.19-1.11-1.77-1.67l-2-1.91-1.55-1.48s-.12,0-.18-.06v-.2H144a3.41,3.41,0,0,1,.93-.77L148,85.12c1-.77,2.11-1.53,3.15-2.31l3.35-2.47c.8-.59,1.6-1.18,2.41-1.76s1.66-1.21,2.48-1.83c.55-.43,1.13-.82,1.69-1.24l2-1.46c.58-.43,1.15-.87,1.75-1.28s1.06-.8,1.6-1.19c1-.73,2-1.48,3-2.2s2.2-1.62,3.3-2.42c.88-.64,1.75-1.27,2.61-1.94.47-.37,1-.69,1.44-1.08,0,0,.1,0,.14,0a.47.47,0,0,1,0,.17,5.15,5.15,0,0,1,0,.56v54.2A1.12,1.12,0,0,1,176.8,119.61Z"/>
    <path class="cls-45" d="M176.73,173.31a15,15,0,0,0-.71-1.71c-.57-1.35-1.16-2.69-1.75-4s-1.15-2.58-1.71-3.87c-1-2.34-2-4.69-3.07-7-.6-1.37-1.21-2.75-1.8-4.12-.82-1.89-1.67-3.75-2.5-5.63-1-2.27-2-4.55-3-6.82l-2.47-5.64-2.9-6.59-2.75-6.26c-.56-1.28-1.1-2.56-1.66-3.83-.63-1.43-1.28-2.86-1.91-4.29L149,109.86c-.62-1.42-1.24-2.83-1.85-4.25s-1.25-2.84-1.87-4.27c-.42-1-.89-1.93-1.27-2.93.44.41.88.8,1.31,1.21l2.72,2.61,2,1.9c1,1,2,2,3,2.93s1.92,1.83,2.87,2.74,2,1.84,2.92,2.79,1.9,1.83,2.86,2.73,2.08,2,3.11,2.94,1.79,1.71,2.68,2.58c.7.7,1.42,1.39,2.13,2.07s1.39,1.32,2.08,2,1.28,1.19,1.91,1.8c1,1,2,2,3,2.94a.88.88,0,0,0,.19.12.51.51,0,0,1,.1.34c0,.15,0,.3,0,.46V171.9a7.71,7.71,0,0,1-.05,1.27v.14Z"/>
    <path class="cls-45" d="M176.79,63.93c-.2.4-.63.54-.95.8-.56.46-1.15.89-1.75,1.31s-1.43,1-2.16,1.56c-.44.3-.87.63-1.29,1s-.74.54-1.11.81l-1.79,1.31-2.29,1.71-3.28,2.38L160.5,76l-2.35,1.74c-.63.47-1.28.93-1.91,1.41s-1.53,1.11-2.28,1.68-1.45,1.07-2.18,1.59-1.51,1.14-2.28,1.68-1.43,1.05-2.16,1.56c-.44.3-.87.63-1.29,1s-.8.57-1.19.86a7.94,7.94,0,0,1-.89.63c.19-.72.5-1.4.75-2.09.47-1.34,1-2.65,1.48-4l2.72-7.32q1.56-4.16,3.11-8.31l2.3-6.18q1.3-3.54,2.63-7.07l2.7-7.25,2.7-7.25,2.49-6.7c.9-2.4,1.79-4.81,2.69-7.22L170,18.23l2.7-7.25q1.26-3.36,2.51-6.73L176.7.15c0-.06,0-.18.12-.15s0,.1,0,.15c.07.71,0,1.43,0,2.14V63.23C176.9,63.47,177,63.72,176.79,63.93Z"/>
    <path class="cls-1" d="M176.79,63.93c0-3.85,0-7.7,0-11.55,0-3.36,0-6.72,0-10.08s0-6.93,0-10.4q0-4.37,0-8.73c0-2.87,0-5.74,0-8.6,0-3.11,0-6.22,0-9.33,0-1.57,0-3.15,0-4.72,0-.12-.06-.27.07-.37.57,1.51,1.13,3,1.7,4.54.82,2.2,1.64,4.41,2.45,6.61q1.49,4,3,8c1.15,3.07,2.28,6.14,3.42,9.21l2.29,6.12c.87,2.32,1.72,4.63,2.59,6.95s1.65,4.38,2.46,6.58c.65,1.73,1.27,3.46,1.91,5.19.81,2.19,1.64,4.37,2.46,6.55s1.71,4.59,2.56,6.89q1.5,4,3,8c1.21,3.25,2.4,6.49,3.61,9.73.42,1.13.85,2.25,1.28,3.38a2.86,2.86,0,0,1,.07.28c-.12.09-.2,0-.29-.06-.91-.7-1.86-1.34-2.77-2s-1.74-1.29-2.61-1.93l-2.23-1.63-2.59-1.9c-.59-.45-1.2-.87-1.8-1.32s-1.32-1-2-1.47-1.15-.87-1.74-1.28-1-.74-1.5-1.11c-1-.76-2.07-1.54-3.12-2.29s-2.18-1.62-3.28-2.41c-.78-.55-1.53-1.13-2.3-1.69-1-.76-2-1.53-3.08-2.28s-2-1.45-3-2.18c-.2-.15-.47-.22-.55-.49Z"/>
    <path class="cls-46" d="M176.8,64.07c.39.28.81.54,1.18.85.62.52,1.3,1,1.94,1.45s1.12.81,1.68,1.21c.41.31.85.59,1.24.94s.79.55,1.17.85c.58.45,1.18.88,1.77,1.31s1.39,1.06,2.11,1.56,1.61,1.19,2.43,1.76,1.78,1.33,2.68,2l3.31,2.42L198,79.65c.77.57,1.53,1.16,2.32,1.71.56.39,1.09.83,1.68,1.21s1.1.86,1.68,1.25c.86.6,1.68,1.25,2.53,1.85.46.32.9.68,1.34,1s1.07.8,1.64,1.16c.15.1.22.31.44.3.07.28-.21.36-.33.48-.63.65-1.31,1.25-2,1.87l-2.9,2.78c-1,1-2,2-3,2.92-.79.75-1.58,1.51-2.39,2.25s-1.42,1.37-2.13,2c-1.09,1-2.16,2.1-3.25,3.14q-2.16,2.08-4.34,4.15L186,110.88c-1.13,1.07-2.28,2.13-3.41,3.22-1.32,1.26-2.63,2.54-3.95,3.82L177,119.54a.51.51,0,0,1-.17.07c0-1.19,0-2.39,0-3.58V64.56C176.79,64.4,176.8,64.24,176.8,64.07Z"/>
    <path class="cls-1" d="M176.85,173.17a2.69,2.69,0,0,1-.06-1c0-2.35,0-4.7,0-7.06v-7.87c0-3.1,0-6.19,0-9.29,0-3.46,0-6.91,0-10.37V130c0-.09,0-.19,0-.29l1.44-1.38,1.89-1.78c.43-.41.85-.84,1.29-1.25.85-.79,1.67-1.6,2.52-2.39,1-1,2-2,3.06-3s2.05-1.92,3.07-2.89c.83-.79,1.65-1.6,2.48-2.4l2.1-2c.87-.83,1.73-1.68,2.61-2.5l1.73-1.64c.57-.55,1.13-1.1,1.71-1.64l2.14-2,2-1.91c.59-.57,1.19-1.12,1.79-1.69l2-1.9.81-.76s.07-.1.12-.07,0,.1,0,.16l-1,2.2-1.65,3.73c-.64,1.46-1.27,2.92-1.91,4.37-.54,1.25-1.1,2.49-1.64,3.73l-2.14,4.9-2.28,5.2c-.63,1.42-1.26,2.85-1.88,4.27l-2.7,6.18c-.65,1.47-1.32,2.94-2,4.41-.81,1.85-1.6,3.71-2.41,5.56-.56,1.29-1.14,2.57-1.7,3.85l-3.06,7c-.9,2.06-1.81,4.11-2.71,6.17-.76,1.71-1.5,3.43-2.25,5.14-.63,1.44-1.28,2.89-1.91,4.33C177.85,170.88,177.36,172,176.85,173.17Z"/>
  </g>
</svg>
