<svg id="Layer_1" data-name="Layer 1" xmlns="http://www.w3.org/2000/svg" xmlns:xlink="http://www.w3.org/1999/xlink" width="543.44" height="543.44" viewBox="0 0 543.44 543.44">
  <defs>
    <style>
      .cls-1 {
        fill: #333;
      }

      .cls-2 {
        fill: url(#linear-gradient);
      }

      .cls-3 {
        fill: #a3a3a3;
      }

      .cls-4 {
        fill: #dfdfdf;
      }

      .cls-5 {
        fill: #bdbdbd;
      }

      .cls-6 {
        fill: #5c5c5c;
      }

      .cls-7 {
        fill: #606060;
      }

      .cls-8 {
        fill: #434343;
      }

      .cls-9 {
        fill: #aba9a9;
      }

      .cls-10 {
        fill: #d8cfcf;
      }

      .cls-11 {
        fill: #616767;
      }

      .cls-12 {
        fill: #707878;
      }

      .cls-13 {
        fill: #616666;
      }

      .cls-14 {
        fill: #555d5d;
      }

      .cls-15 {
        fill: #d1d1d1;
      }

      .cls-16 {
        fill: #8a8a8a;
      }

      .cls-17 {
        fill: #a1a1a1;
      }

      .cls-18 {
        fill: #afafaf;
      }

      .cls-19 {
        fill: #adadad;
      }

      .cls-20 {
        fill: #a8a2a2;
      }

      .cls-21 {
        fill: #605b5b;
      }

      .cls-22 {
        fill: #615c5c;
      }

      .cls-23 {
        fill: #716d6d;
      }

      .cls-24 {
        fill: #dcdcdc;
      }

      .cls-25 {
        fill: #c1c1c1;
      }

      .cls-26 {
        fill: #c3c3c3;
      }

      .cls-27 {
        fill: #b8b8b8;
      }

      .cls-28 {
        fill: #aeaeae;
      }

      .cls-29 {
        fill: #707070;
      }

      .cls-30 {
        fill: #737373;
      }

      .cls-31 {
        fill: #5a5a5a;
      }

      .cls-32 {
        fill: #c5c5c5;
      }

      .cls-33 {
        fill: #999;
      }

      .cls-34 {
        fill: #9b9b9b;
      }

      .cls-35 {
        fill: #898989;
      }

      .cls-36 {
        fill: #979797;
      }

      .cls-37 {
        fill: #474747;
      }

      .cls-38 {
        fill: #4c4c4c;
      }

      .cls-39 {
        fill: #2b2b2b;
      }

      .cls-40 {
        fill: #bababa;
      }

      .cls-41 {
        fill: #858585;
      }

      .cls-42 {
        fill: #888;
      }

      .cls-43 {
        fill: #727272;
      }

      .cls-44 {
        fill: #383838;
      }

      .cls-45 {
        fill: #8b8b8b;
      }

      .cls-46 {
        fill: #141414;
      }
    </style>
    <linearGradient id="linear-gradient" x1="119.09" y1="461.64" x2="422.85" y2="461.64" gradientUnits="userSpaceOnUse">
      <stop offset="0" stop-color="#dcdcdc"/>
      <stop offset="0.5" stop-color="#858685"/>
      <stop offset="1" stop-color="#2b2c2b"/>
    </linearGradient>
  </defs>
  <g id="Layer_2" data-name="Layer 2">
    <g>
      <g>
        <path class="cls-1" d="M157.45,432.13l15.25,55.56,16.87-55.56h2.86l-17.87,59H171l-15.34-55.56L140.5,491.15H137l-17.87-59H122l16.86,55.56,15.26-55.56Z"/>
        <path class="cls-1" d="M246,491.15l-6.15-16.36H210l-6.15,16.36h-2.95l22.34-59h3.62l22.18,59h-3Zm-35-18.8h28l-14-37.1Z"/>
        <path class="cls-1" d="M288.21,459.7H313v1.94c0,21.83-7.42,31.19-24.79,31.19-18.55,0-26.55-9.36-26.55-31.19s8-31.19,26.55-31.19c13.91,0,21.16,6.07,23.94,20.23h-2.78c-2.78-12.48-8.93-17.62-21.16-17.62-16.78,0-23.6,8.35-23.6,28.58s6.82,28.58,23.6,28.58c15.6,0,22-8.26,22-28.07h-22Z"/>
        <path class="cls-1" d="M345.37,491.15h-2.78v-25l-20.31-34h3.2L344,463.24l18.46-31.11h3.12l-20.24,34Z"/>
        <path class="cls-1" d="M379.94,432.13h2.87V470c0,14.33,5.39,20.23,18.63,20.23S420,484.32,420,470V432.13h2.86V470c0,16-6.4,22.84-21.41,22.84S379.94,486,379.94,470Z"/>
      </g>
      <g>
        <path class="cls-2" d="M157.45,432.13l15.25,55.56,16.87-55.56h2.86l-17.87,59H171l-15.34-55.56L140.5,491.15H137l-17.87-59H122l16.86,55.56,15.26-55.56Z"/>
        <path class="cls-2" d="M246,491.15l-6.15-16.36H210l-6.15,16.36h-2.95l22.34-59h3.62l22.18,59h-3Zm-35-18.8h28l-14-37.1Z"/>
        <path class="cls-2" d="M288.21,459.7H313v1.94c0,21.83-7.42,31.19-24.79,31.19-18.55,0-26.55-9.36-26.55-31.19s8-31.19,26.55-31.19c13.91,0,21.16,6.07,23.94,20.23h-2.78c-2.78-12.48-8.93-17.62-21.16-17.62-16.78,0-23.6,8.35-23.6,28.58s6.82,28.58,23.6,28.58c15.6,0,22-8.26,22-28.07h-22Z"/>
        <path class="cls-2" d="M345.37,491.15h-2.78v-25l-20.31-34h3.2L344,463.24l18.46-31.11h3.12l-20.24,34Z"/>
        <path class="cls-2" d="M379.94,432.13h2.87V470c0,14.33,5.39,20.23,18.63,20.23S420,484.32,420,470V432.13h2.86V470c0,16-6.4,22.84-21.41,22.84S379.94,486,379.94,470Z"/>
      </g>
    </g>
  </g>
  <g>
    <path class="cls-3" d="M111.21,247.57h.23c3.61-.08,7.23,0,10.85,0h15.4c2,0,4.06,0,6.09,0,2.66,0,5.32,0,8,0,2.43,0,4.87,0,7.3,0,2.82,0,5.63,0,8.45,0h.17a.75.75,0,0,1,.43.37.87.87,0,0,0,.16.26c.94,1.17,1.81,2.4,2.69,3.62.37.5.74,1,1.12,1.51.75,1,1.47,2,2.22,3,0,.05.05.11.08.17l.06.07.06.07c.4.49.77,1,1.13,1.51a.48.48,0,0,0,.14.25c.65.74,1.19,1.56,1.78,2.35.89,1.18,1.76,2.38,2.63,3.57.73,1,1.46,2,2.21,3,.86,1.16,1.69,2.34,2.58,3.49l.6.83c0,.06,0,.12.08.17l.05.07.06.07a1.51,1.51,0,0,1,.18.26.92.92,0,0,0,.17.22,7.3,7.3,0,0,1,.79,1,.37.37,0,0,0,.14.23c.51.56.91,1.2,1.37,1.81a3.77,3.77,0,0,1,.37.52,1.14,1.14,0,0,0,.15.23c.07.08.16.16.15.28a.12.12,0,0,1,0,.08l-2.67-1c-.92-.35-1.83-.72-2.76-1.05-.74-.26-1.48-.56-2.23-.82s-1.33-.5-2-.75l-2.13-.79-2.05-.78-2.14-.78-2.33-.86-2.6-1-1.69-.63-2-.74-2.89-1.07-3.49-1.31-2.73-1c-1-.36-2-.74-3-1.11s-1.84-.68-2.76-1c-1.15-.45-2.34-.83-3.5-1.28l-3.19-1.21c-1.17-.44-2.34-.88-3.52-1.3-.84-.3-1.68-.58-2.5-.91-1.43-.57-2.89-1.08-4.32-1.64-1.15-.44-2.31-.84-3.47-1.27l-2.26-.85-3.33-1.23c-1.53-.55-3-1.15-4.55-1.72s-3.1-1.11-4.64-1.7c-.9-.34-1.82-.67-2.72-1a.85.85,0,0,0-.42-.08Z"/>
    <path class="cls-4" d="M189.05,276.72v-.1a0,0,0,0,0,0-.05c.07,0,.15,0,.21,0v.13Z"/>
    <path class="cls-5" d="M189.05,218.69v-.07h.21v.08A.13.13,0,0,1,189.05,218.69Z"/>
    <path class="cls-6" d="M189.05,218.69h.2l.08.14a1.12,1.12,0,0,0-.56.47q-1.56,2.15-3.14,4.27L182.4,228l-3.62,4.93c-.92,1.25-1.83,2.52-2.76,3.76-1.33,1.78-2.63,3.57-4,5.35-1,1.38-2,2.76-3,4.14a19,19,0,0,1-1.17,1.51.17.17,0,0,1-.1,0H162c-1.09,0-2.18,0-3.27,0-1.25,0-2.51,0-3.76,0s-2.77,0-4.16,0h-39c-.13,0-.27.05-.37-.07l2.19-.8,3.7-1.38c.75-.27,1.5-.56,2.25-.84,1-.38,2-.74,3-1.11l2.92-1.1c1.15-.43,2.3-.88,3.46-1.29s2.33-.87,3.5-1.29c.75-.27,1.51-.56,2.26-.85,1.13-.43,2.27-.86,3.42-1.28l3.49-1.28,2.42-.92,3-1.11c1.1-.41,2.19-.83,3.29-1.22l2.23-.83c.6-.21,1.2-.44,1.8-.67l2.36-.87c1.08-.41,2.16-.83,3.25-1.23l2.17-.8,3.35-1.25,2.13-.79,2.76-1,2.17-.8,2.08-.79,1.83-.68c.72-.26,1.43-.51,2.14-.78l2.12-.8,2.63-1,4.19-1.57Z"/>
    <path class="cls-7" d="M167.77,247.65h.1a.75.75,0,0,1,.44-.12h48.07a3,3,0,0,1,.43,0c.1,0,.12.1,0,.19s-.4.43-.61.64l-2.34,2.45-2,2.07-3.73,3.89-1.9,2L204.15,261c-1.14,1.18-2.29,2.35-3.41,3.55-.53.57-1.08,1.12-1.6,1.7-.7.75-1.42,1.48-2.13,2.22l-2.6,2.71c-.95,1-1.9,2-2.86,3l-2,2.06a1.67,1.67,0,0,0-.34.36.2.2,0,0,1-.21,0c0-.12-.11-.18-.15-.27a1,1,0,0,0-.14-.21l-1.42-1.93a3,3,0,0,0-.36-.43.86.86,0,0,1-.13-.23l-.8-1.05c-.05-.07-.08-.15-.14-.22l-.22-.28-.07-.07h0s0-.11-.07-.15c-.52-.71-1.06-1.41-1.57-2.13s-1.12-1.46-1.65-2.21-1.07-1.47-1.61-2.2l-1.08-1.47-1.2-1.63c-.39-.56-.81-1.1-1.22-1.65L176,258.79c-.09-.13-.2-.26-.3-.39a1.64,1.64,0,0,1-.14-.22l-1.15-1.56a.46.46,0,0,0-.07-.07h0s0-.11-.07-.14c-.52-.65-1-1.34-1.48-2-.26-.35-.49-.72-.78-1s-.31-.45-.48-.66c-.46-.61-.88-1.24-1.36-1.84-.27-.34-.5-.71-.76-1.06l-1.21-1.61a1.35,1.35,0,0,0-.14-.22Z"/>
    <path class="cls-8" d="M216.81,247.55a.2.2,0,0,1-.19.09H167.87a13.57,13.57,0,0,1,1.09-1.52c.44-.61.9-1.21,1.34-1.82s.77-1.07,1.17-1.6.81-1.12,1.23-1.67.69-1,1-1.45.81-1.05,1.18-1.58a12.28,12.28,0,0,0,.75-1,6.16,6.16,0,0,1,.65-.87c.29-.35.51-.74.79-1.08s.68-.94,1-1.4.78-1,1.17-1.55c.19-.25.35-.53.55-.77s.49-.66.73-1a10.7,10.7,0,0,0,.75-1,5.26,5.26,0,0,1,.64-.85c.2-.22.31-.49.5-.71.53-.61.93-1.31,1.44-1.93.23-.27.39-.61.62-.89s.48-.61.71-.93c.42-.59.86-1.18,1.3-1.76.22-.3.47-.57.66-.88.37-.59.83-1.11,1.22-1.68a5.58,5.58,0,0,1,.55-.73.28.28,0,0,1,.36-.09c.5.44.92.95,1.38,1.42.69.69,1.36,1.4,2,2.11l2.24,2.35c.75.78,1.51,1.55,2.25,2.35.55.59,1.11,1.18,1.67,1.76.73.76,1.45,1.52,2.19,2.26s1.23,1.3,1.85,1.94l2.17,2.28c.76.8,1.52,1.61,2.29,2.41l2.62,2.72,3.43,3.57,3.3,3.45A.73.73,0,0,1,216.81,247.55Z"/>
    <path class="cls-3" d="M264.09,247.57c.11,0,.11.09,0,.14a1.49,1.49,0,0,0-.24.14c-.67.22-1.3.55-2,.82s-1.36.6-2.05.9l-3.57,1.57-2.89,1.26-3.35,1.48-2.86,1.26-2.8,1.21-2.18,1-2.47,1.08-2,.88-2.7,1.18-2.47,1.09L230,262.67l-5.76,2.52-4.9,2.17-3.88,1.69c-1.33.59-2.66,1.19-4,1.75s-2.67,1.18-4,1.74-2.76,1.23-4.15,1.84l-2.54,1.09c-.52.22-1,.46-1.55.7a3.05,3.05,0,0,1-.53.2c-.09,0-.2.19-.29,0,.4-.52.91-.95,1.35-1.44.27-.3.56-.58.83-.87l1.62-1.68,1.1-1.15c.53-.55,1.05-1.12,1.58-1.67l1.44-1.52c.48-.49,1-1,1.43-1.48l2-2.07c.66-.68,1.34-1.34,2-2.05s1.14-1.15,1.67-1.76c.1-.07.15-.19.24-.26.47-.42.87-.91,1.3-1.36l3.75-3.92c.55-.58,1.12-1.14,1.68-1.72l1.31-1.39,1.52-1.58c.56-.59,1.12-1.19,1.69-1.77.32-.34.66-.68,1-1a3.83,3.83,0,0,1,1.17-.09c3.06,0,6.13,0,9.19,0h19.53c2.55,0,5.09,0,7.63,0C263.58,247.52,263.83,247.6,264.09,247.57Z"/>
    <path class="cls-6" d="M264.09,247.57c-.09.12-.22.07-.33.07H251.94c-1.41,0-2.82,0-4.23,0h-7.1c-1.36,0-2.73,0-4.09,0s-2.82,0-4.23,0c-1.08,0-2.17,0-3.26,0s-2,0-3,0c-.08,0-.16,0-.25,0-.66-.69-1.33-1.37-2-2.07-1.13-1.19-2.28-2.36-3.4-3.56-.91-1-1.89-1.92-2.8-2.9-.68-.74-1.38-1.46-2.06-2.19-.89-.95-1.81-1.86-2.7-2.8s-1.76-1.83-2.64-2.76-1.69-1.76-2.53-2.65-1.89-2-2.84-3l-2.14-2.25c-.67-.7-1.36-1.38-2-2.09s-1.53-1.57-2.26-2.39c0,0-.08-.12-.17-.11l-.09-.21c.32.13.61.24.89.37l2.4,1.06,2.75,1.22,1.79.77,3.17,1.4,3.33,1.43c1.07.47,2.13,1,3.2,1.44l3.84,1.66,3.67,1.6c1.19.54,2.38,1.06,3.57,1.57l3.64,1.6,3.5,1.54c1.29.56,2.59,1.11,3.87,1.69s2.38,1,3.57,1.57,2.38,1,3.58,1.56c.9.39,1.79.81,2.68,1.2s2,.86,3,1.31,1.79.8,2.69,1.2,1.58.68,2.37,1l3.3,1.46,2.38,1,2.56,1.13Z"/>
    <path class="cls-9" d="M198.39,276.36c.09.09.2,0,.29,0-.14.09-.26.22-.47.2C198.23,276.45,198.27,276.38,198.39,276.36Z"/>
    <path class="cls-10" d="M213.6,260.41a.35.35,0,0,1-.24.26A.35.35,0,0,1,213.6,260.41Z"/>
    <path class="cls-11" d="M168.07,248a.2.2,0,0,1,.14.22A.22.22,0,0,1,168.07,248Z"/>
    <path class="cls-12" d="M175.57,258.18a.24.24,0,0,1,.14.22A.2.2,0,0,1,175.57,258.18Z"/>
    <path class="cls-12" d="M185.91,272.23a.23.23,0,0,1,.14.22A.22.22,0,0,1,185.91,272.23Z"/>
    <path class="cls-12" d="M186.85,273.5a.3.3,0,0,1,.13.23A.19.19,0,0,1,186.85,273.5Z"/>
    <path class="cls-13" d="M188.76,276.09a.18.18,0,0,1,.14.21A.22.22,0,0,1,188.76,276.09Z"/>
    <path class="cls-14" d="M174.28,256.41a.13.13,0,0,1,.07.14A.13.13,0,0,1,174.28,256.41Z"/>
    <path class="cls-14" d="M185.55,271.73a.16.16,0,0,1,.07.15A.15.15,0,0,1,185.55,271.73Z"/>
    <path class="cls-14" d="M174.35,256.55a.1.1,0,0,1,.07.07Z"/>
    <path class="cls-14" d="M185.62,271.88a.08.08,0,0,1,.07.07Z"/>
  </g>
  <g>
    <path class="cls-15" d="M362.43,228.88l1.57.59,1.47.53,1.75.66,2,.76,2,.76,2.36.86,1.41.53,1.53.58c.67.25,1.35.49,2,.75l1.35.5c.47.16.93.36,1.4.53l2,.71c.53.2,1,.41,1.57.6L387,238l.84.31,2.22.83c.63.24,1.26.49,1.91.72.47.16.94.36,1.42.52l1.35.51,1.44.53c.47.18.93.34,1.39.53s.95.35,1.43.52l1.55.58,1.75.65,1.4.53,1.13.41,2.19.82,1.36.51,1.91.7,2.15.81,1.53.57.22.07v.05s-.08.06-.14,0H376.57a.55.55,0,0,1-.27-.23c-.4-.54-.81-1.07-1.2-1.61-.64-.91-1.32-1.77-2-2.68a.34.34,0,0,0-.1-.16,5.08,5.08,0,0,1-.52-.7.42.42,0,0,0-.11-.16c-.84-1.09-1.64-2.2-2.45-3.31-.48-.66-1-1.3-1.44-2-.24-.32-.49-.64-.71-1a.64.64,0,0,0-.1-.13c-.5-.65-1-1.31-1.46-2a1,1,0,0,0-.1-.17,6.12,6.12,0,0,1-.53-.7.39.39,0,0,0-.1-.16c-.49-.57-.9-1.2-1.35-1.8-.59-.78-1.15-1.59-1.75-2.37-.06-.07-.15-.15-.09-.27A.12.12,0,0,1,362.43,228.88Z"/>
    <path class="cls-4" d="M362.43,228.88h-.1c-.05,0-.09,0-.13,0v-.06h.14Z"/>
    <path class="cls-16" d="M356.25,267.52l-.1-.09a.06.06,0,0,1,.05-.06c.07,0,.08.09.09.15Z"/>
    <path class="cls-5" d="M362.33,267.47v0h-.14v-.09C362.25,267.39,362.29,267.43,362.33,267.47Z"/>
    <path class="cls-17" d="M362.33,267.47l-.14,0-1.14-1.2c-.55-.58-1.12-1.15-1.67-1.73l-1.86-1.94-2.29-2.4c-.81-.86-1.65-1.72-2.47-2.58L351.3,256c-.48-.5-1-1-1.45-1.51l-1.32-1.37c-.65-.68-1.3-1.35-1.94-2s-1.1-1.15-1.64-1.73c-.38-.39-.77-.76-1.12-1.17-.05-.12.05-.14.12-.16a1.06,1.06,0,0,1,.31,0H376a.86.86,0,0,1,.39,0c.13.06.09.15,0,.24s-.3.42-.46.63c-.37.48-.73,1-1.09,1.47l-.82,1.13L373,253l-1.55,2.1-1.44,2c-.63.87-1.28,1.73-1.92,2.6s-1.23,1.66-1.84,2.5c-.76,1.05-1.54,2.09-2.31,3.14-.43.6-.88,1.19-1.31,1.8-.07.11-.18.2-.26.31S362.33,267.46,362.33,267.47Z"/>
    <path class="cls-18" d="M376.46,248.18a.41.41,0,0,0-.19-.05H343.94a.11.11,0,0,0-.11.1c-.13-.07,0-.14,0-.19s.23-.25.35-.37c.4-.4.79-.81,1.18-1.23s.95-1,1.42-1.47l1.29-1.35c.5-.51,1-1,1.48-1.55l1.55-1.62,1.54-1.59c.69-.73,1.38-1.47,2.07-2.19.4-.42.8-.82,1.2-1.23l1.31-1.39,1.36-1.41,1.47-1.55,2-2.07a1.09,1.09,0,0,0,.13-.17.19.19,0,0,1,.13,0,1.72,1.72,0,0,0,.26.4l1.12,1.5.91,1.23c.31.44.63.86.95,1.29l.09.15.53.71a1.1,1.1,0,0,0,.09.14l1.48,2c0,.05.06.07.08.11.17.24.34.47.52.7l.68.93c.17.24.36.46.52.7s.3.38.43.58.35.49.52.73.54.72.8,1.09c.13.19.27.38.42.56l.48.66.25.32a1.7,1.7,0,0,1,.1.14l.52.71s.06.1.09.14c.19.23.36.46.53.7l.39.55c.21.27.41.56.62.83l1.07,1.47c.2.27.43.52.61.81,0,.07.11.1.17.15A.07.07,0,0,1,376.46,248.18Z"/>
    <path class="cls-15" d="M312.35,248.22c-.13,0-.15,0-.08-.13a4.7,4.7,0,0,0,.87-.36c.57-.23,1.13-.49,1.69-.73l1.21-.54,1.48-.65,2.64-1.15,1.83-.8c.82-.35,1.62-.72,2.45-1.07s1.57-.69,2.36-1l2.68-1.18,2.56-1.11,2.53-1.13,1.91-.83,2.46-1.06,2.51-1.1,2.12-1,1.68-.72,2.11-.94,2.2-.95,1.58-.7,1.47-.64,1.93-.84c.44-.2.87-.4,1.32-.58,0,0,.07,0,.1,0h0c.05,0,.1,0,.1.05h0a.21.21,0,0,0,0,.06c-.25.31-.56.58-.83.87s-.52.55-.78.82l-.8.84-.84.87-1.5,1.57-1.17,1.23c-.44.45-.89.9-1.31,1.36s-.7.73-1,1.09l-1.5,1.58c-.6.63-1.19,1.26-1.8,1.88-.4.4-.79.81-1.18,1.22s-.9.93-1.33,1.41-.69.71-1,1.07l-.91,1L338.92,247c-.36.37-.71.76-1.07,1.13a.07.07,0,0,0,0,.05.84.84,0,0,1-.44,0h-25Z"/>
    <path class="cls-19" d="M312.35,248.22c.17-.13.37-.07.54-.07h24.27a3.13,3.13,0,0,1,.68,0c.31.33.63.65,1,1l1.52,1.59,1.06,1.11,1.17,1.22c.37.38.72.77,1.09,1.15l.76.8,1.6,1.67,1.68,1.75c.38.39.74.79,1.12,1.18.66.7,1.34,1.39,2,2.09l1.45,1.54,1.77,1.83,1.38,1.45.8.83-.05.06-1.15-.5-1.06-.47-1.27-.56-1.11-.48-1.27-.56-1.32-.58-1-.46-1.56-.68-1.58-.69-2.25-1-1.52-.67-1.62-.71-1.82-.8c-.9-.39-1.79-.8-2.7-1.18s-1.77-.78-2.67-1.16l-2.38-1.05-2.36-1c-.6-.25-1.19-.53-1.79-.79l-2-.88-2.2-1c-.52-.23-1-.44-1.56-.68l-1.14-.51-1.65-.72-1.86-.82-1.93-.84Z"/>
    <path class="cls-20" d="M356.1,229a.16.16,0,0,0-.1-.05.22.22,0,0,1,.24-.09C356.22,229,356.16,229,356.1,229Z"/>
    <path class="cls-20" d="M356,229a.08.08,0,0,1-.1,0A.12.12,0,0,1,356,229Z"/>
    <path class="cls-20" d="M356.06,229.08l0-.06A.07.07,0,0,1,356.06,229.08Z"/>
    <path class="cls-19" d="M376.46,248.18h14.05c.53,0,1.06,0,1.59,0h20c.53,0,1.06,0,1.59,0,.13,0,.27-.08.38.05l-2.09.78-2.1.77c-1,.38-2,.77-3,1.14L404,252c-.66.26-1.33.48-2,.73s-1.63.63-2.45.93l-1.38.51-1.46.55-1.88.69-2.15.81-1.78.65L388,257.91l-2.79,1-2.46.92-2.53.93L377.05,262l-2.46.91-2.52.94-2.12.81-2.31.84c-.72.27-1.43.55-2.15.81l-1.37.51-1.6.59c-.06,0-.11.06-.18.05a.16.16,0,0,1,.06-.15c.37-.46.7-1,1.05-1.42s.49-.68.74-1,.49-.67.74-1,.73-.92,1.05-1.41.66-.85.94-1.3c.12-.21.3-.39.44-.59.25-.36.53-.7.77-1.06.13-.19.27-.35.4-.53s.34-.51.55-.74.35-.5.54-.73c.33-.42.62-.87.95-1.3s.45-.58.66-.88.56-.75.82-1.14.44-.58.65-.88.52-.69.77-1l.34-.47c.17-.23.35-.45.51-.68s.35-.44.5-.68.28-.38.42-.57.35-.5.54-.74S376.24,248.5,376.46,248.18Z"/>
    <path class="cls-21" d="M365.66,233.45a.16.16,0,0,1-.09-.15A.16.16,0,0,1,365.66,233.45Z"/>
    <path class="cls-21" d="M366.28,234.3c-.07,0-.1-.07-.09-.14A.13.13,0,0,1,366.28,234.3Z"/>
    <path class="cls-22" d="M372.56,242.81a.15.15,0,0,1-.1-.14A.13.13,0,0,1,372.56,242.81Z"/>
    <path class="cls-22" d="M373.17,243.66a.13.13,0,0,1-.09-.14C373.15,243.55,373.18,243.59,373.17,243.66Z"/>
    <path class="cls-23" d="M367.84,236.4a.09.09,0,0,1-.08-.11S367.84,236.35,367.84,236.4Z"/>
  </g>
  <g>
    <path class="cls-24" d="M324.66,186.59l1.6-.74,2.13-1,3.1-1.42c.7-.32,1.38-.66,2.08-1s1.54-.7,2.32-1c.49-.21,1-.47,1.46-.69,1-.5,2.11-1,3.17-1.45.78-.35,1.56-.68,2.33-1s1.77-.81,2.66-1.22l1.73-.8c.57-.27,1.16-.52,1.74-.8l2.38-1.09c.62-.28,1.24-.55,1.85-.84s1.4-.64,2.09-1c.43-.21.87-.39,1.31-.59.76-.34,1.52-.71,2.28-1.06.45-.2.91-.39,1.36-.6l1.78-.8,1.72-.78,1.79-.82,1.81-.83,2.24-1a.87.87,0,0,1,.31-.1c.08,0,.07.05,0,.09a2.37,2.37,0,0,1-.35.42l-23.12,23.12a1,1,0,0,1-.4.32,8.67,8.67,0,0,1-1.14-.15q-1.87-.27-3.75-.57l-4-.62-3.47-.52c-1-.15-2.08-.33-3.12-.49l-3.39-.51c-.77-.12-1.54-.22-2.3-.36C324.79,186.66,324.71,186.66,324.66,186.59Z"/>
    <path class="cls-25" d="M346,189.85l2.74-2.73,8.47-8.46L367.9,168c.66-.66,1.3-1.35,2-2a17.16,17.16,0,0,1-.77,1.69c-.2.43-.37.87-.56,1.3l-1.17,2.56c-.3.65-.57,1.32-.88,2-.43.9-.84,1.81-1.26,2.71q-.36.83-.75,1.65c-.44.95-.89,1.91-1.32,2.87-.37.8-.72,1.62-1.1,2.42-.31.65-.6,1.3-.91,1.95-.2.42-.38.85-.57,1.28l-1.05,2.27c-.34.74-.67,1.49-1,2.23l-1.45,3.15c-.33.73-.65,1.48-1,2.21-.27.57-.52,1.14-.78,1.71-.45,1-.92,2-1.37,2.95-.36.78-.7,1.58-1.05,2.37s-.7,1.47-1,2.21l-1.37,3-1.16,2.54-.06.08a.72.72,0,0,1-.16-.5c-.21-1.47-.45-2.94-.67-4.4-.18-1.24-.37-2.48-.56-3.72-.26-1.67-.52-3.35-.77-5-.22-1.46-.45-2.91-.66-4.37l-.45-2.88a1.11,1.11,0,0,0-.09-.31C345.9,189.87,346,189.88,346,189.85Z"/>
    <path class="cls-26" d="M346,189.85l-.1.1c0,.09,0,.14-.08.19l-.23.24-20.11,20.1a.86.86,0,0,1-.2.18c-.14,0-.13,0-.13-.15,0-.62,0-1.25-.05-1.88s0-1.47,0-2.2,0-1.31-.05-2c0-.89,0-1.78-.06-2.67,0-.7-.06-1.41-.07-2.12,0-.94,0-1.88,0-2.82,0-.72,0-1.44-.05-2.16,0-.88,0-1.77-.06-2.65s0-1.94-.07-2.91q0-1,0-2.07c0-.16-.09-.31,0-.47.55.09,1.1.18,1.66.25,1.11.15,2.22.34,3.34.5.94.13,1.88.29,2.82.43,1.19.17,2.36.37,3.54.55,1,.16,2,.29,3,.44,1.31.21,2.61.43,3.92.63Z"/>
    <path class="cls-27" d="M325.32,210.66c0-.14.14-.21.23-.29l20.15-20.16.24-.26c.24.16.17.44.2.66.14.81.27,1.62.38,2.44s.27,1.67.38,2.52.26,1.72.39,2.59c.2,1.26.39,2.53.58,3.79l.57,3.71c.22,1.43.45,2.85.67,4.28.06.41.1.83.18,1.23,0,.06-.07.06-.11.06l-3.52-.08c-.73,0-1.46,0-2.19,0s-1.71,0-2.56-.06-1.47,0-2.21-.05l-3-.06c-.79,0-1.59,0-2.37-.05s-1.49,0-2.23-.06-1.4,0-2.1-.05c-.87,0-1.73-.05-2.6-.06A3.46,3.46,0,0,1,325.32,210.66Z"/>
    <path class="cls-24" d="M305.42,230.64c-.08.07-.18.1-.25,0s0-.14.07-.22c.33-.85.66-1.71,1-2.57.25-.62.5-1.25.73-1.87s.53-1.33.78-2,.55-1.41.82-2.11.62-1.5.89-2.26.47-1.25.71-1.87.45-1.19.71-1.77c.16-.36.28-.74.43-1.12.28-.71.58-1.41.84-2.13.13-.37.27-.74.41-1.1l1.11-2.79c.24-.61.46-1.22.7-1.83l.9-2.32.9-2.28c.32-.82.63-1.64,1-2.47.24-.62.51-1.24.74-1.87s.49-1.28.74-1.92.54-1.36.8-2l1-2.64c.13-.35.27-.69.43-1,.05.93.05,1.86.08,2.78,0,.68,0,1.35.05,2s0,1.35,0,2c0,1,.05,2,.07,3,0,.58,0,1.16,0,1.75s0,.94,0,1.41,0,1.22,0,1.82,0,1,0,1.44c0,1.07,0,2.15.07,3.22,0,.87,0,1.74.08,2.61,0,.54,0,1.08,0,1.62a.49.49,0,0,0,.06.27c0,.17-.14.24-.24.34l-10.66,10.66-4.93,4.94C305.56,230.45,305.45,230.51,305.42,230.64Z"/>
    <path class="cls-25" d="M305.42,230.64c-.15,0-.07-.09,0-.13l.7-.7,8.06-8.06,7.26-7.26.05-.06a7.59,7.59,0,0,0,1.26,0c.87,0,1.75,0,2.62.05l2.6.06c.89,0,1.78.07,2.66.09s1.59,0,2.38,0,1.46,0,2.18.07,1.35,0,2,0c1,0,2,.05,3,.07.68,0,1.35,0,2,0,.91,0,1.81,0,2.72.07a3.67,3.67,0,0,1,.46,0,10.44,10.44,0,0,0-1.05.42c-1,.4-2,.77-2.95,1.15s-1.87.73-2.81,1.08c-.78.29-1.56.61-2.34.91s-1.83.74-2.74,1.09l-3.22,1.24c-.68.26-1.37.55-2.06.81s-1.35.52-2,.78-1.3.5-1.94.77l-1.8.7c-.72.27-1.43.56-2.15.84-1.12.42-2.21.88-3.33,1.29-.74.26-1.46.57-2.19.86s-1.31.53-2,.78-1.43.53-2.14.81-1.7.69-2.56,1c-.38.14-.76.27-1.13.43C306.49,230.24,306,230.43,305.42,230.64Z"/>
  </g>
  <g>
    <path class="cls-28" d="M241,333.25l-3.72,1.68c-1.11.52-2.21,1.06-3.32,1.57s-2.29,1-3.43,1.54c-1.49.69-3,1.35-4.48,2-.77.35-1.53.71-2.31,1-1.08.46-2.13,1-3.2,1.5l-2.08.94L215.29,345l-3.69,1.69-3.75,1.73c-1.26.59-2.5,1.21-3.78,1.75s-2.41,1.1-3.62,1.63-2.2,1-3.29,1.5l-3.43,1.55c-1.25.57-2.49,1.16-3.75,1.73L186.8,358c-1.31.62-2.63,1.21-4,1.82L177,362.5l-3.58,1.61c-.88.4-1.75.81-2.63,1.2-.08,0-.2.16-.29,0a.12.12,0,0,1,.07-.17l29.08-29.09,7.52-7.52a1.32,1.32,0,0,1,.54-.42,15.05,15.05,0,0,1,1.77.24c1.91.28,3.83.57,5.74.87L220,330l5.06.76,3.67.57,4,.6,4.81.74c1,.17,2.05.3,3.08.48C240.7,333.14,240.85,333.13,241,333.25Z"/>
    <path class="cls-29" d="M207.69,328.19l-4.26,4.24-13.06,13-16.69,16.71L170.87,365c-.08.08-.13.25-.31.18.4-.92.79-1.85,1.21-2.76.49-1.08,1-2.16,1.5-3.24l1.83-4q1.1-2.36,2.18-4.71c.52-1.15,1-2.32,1.55-3.45s1-2.15,1.5-3.22c.38-.84.76-1.69,1.13-2.53,1-2.23,2-4.45,3-6.68.56-1.21,1.15-2.42,1.68-3.65s1.13-2.37,1.65-3.58,1.06-2.35,1.58-3.53,1.09-2.38,1.64-3.56c.72-1.55,1.41-3.11,2.11-4.66l1.69-3.66c.48-1.05.92-2.11,1.43-3.15s1.08-2.34,1.62-3.51.92-2.16,1.45-3.21,1.1-2.41,1.67-3.6,1-2.28,1.53-3.42a.27.27,0,0,1,.08-.07,1.89,1.89,0,0,1,.27,1c.35,2.35.73,4.69,1.08,7,.2,1.35.4,2.7.61,4.05.24,1.6.49,3.21.74,4.81s.48,3.18.72,4.77c.17,1.19.34,2.39.53,3.58.31,1.9.59,3.79.88,5.69a9.3,9.3,0,0,0,.4,2.09C207.91,328.16,207.76,328.14,207.69,328.19Z"/>
    <path class="cls-30" d="M207.69,328.19l.16-.16c0-.13.05-.21.12-.3s.24-.24.36-.36l31.28-31.28a2.7,2.7,0,0,1,.31-.28c.34,0,.21.32.21.47,0,1.46.05,2.92.11,4.38,0,1.22,0,2.44.08,3.66,0,1.64.06,3.28.1,4.91.05,1.83.06,3.66.11,5.48s.11,3.6.15,5.41c0,2,.06,3.95.09,5.92,0,1.59.07,3.18.11,4.77,0,.82.05,1.63.07,2.44-.86-.13-1.72-.27-2.58-.38-1.73-.24-3.46-.52-5.19-.77-1.47-.21-2.93-.46-4.4-.67-1.84-.27-3.67-.59-5.51-.87-1.57-.24-3.14-.44-4.71-.68-2-.32-4.06-.67-6.1-1C210.87,328.65,209.28,328.42,207.69,328.19Z"/>
    <path class="cls-31" d="M239.92,295.81c0,.22-.21.32-.35.46l-31.34,31.35c-.13.13-.25.27-.38.41-.38-.24-.26-.66-.31-1-.21-1.28-.42-2.57-.61-3.86s-.35-2.31-.52-3.46c-.23-1.48-.44-3-.66-4.45q-.45-3-.92-5.94c-.29-1.9-.57-3.82-.87-5.72-.34-2.22-.7-4.43-1-6.65-.09-.67-.19-1.34-.29-2a17.16,17.16,0,0,1,1.9.05c1,0,2,0,3,0,1.48,0,3,0,4.43.09,1.19.05,2.38,0,3.57.07s2.51,0,3.77.1,2.42,0,3.62.08c1.41,0,2.81,0,4.21.09,1.19,0,2.38,0,3.57.08s2.52,0,3.78.09,2.43,0,3.65.08A7.47,7.47,0,0,1,239.92,295.81Z"/>
    <path class="cls-28" d="M270.88,264.74c.09-.09.22-.14.3-.05s0,.27,0,.4l-1.41,3.56c-.44,1.14-.93,2.26-1.33,3.41-.32.93-.73,1.82-1.07,2.74-.41,1.14-.88,2.25-1.32,3.37-.54,1.38-1.07,2.77-1.61,4.16-.39,1-.76,2-1.17,2.93s-.75,2.06-1.17,3.07-.79,1.95-1.16,2.93c-.53,1.43-1.13,2.84-1.65,4.28-.4,1.1-.87,2.19-1.3,3.29-.51,1.34-1,2.69-1.55,4-.39.94-.75,1.9-1.13,2.85-.28.7-.55,1.42-.81,2.13-.47,1.28-1,2.54-1.5,3.8-.3.76-.59,1.52-.88,2.28l-1.56,4c-.57,1.48-1.13,3-1.71,4.45-.51,1.3-1.05,2.6-1.57,3.9-.13.33-.23.67-.36,1.06a2.73,2.73,0,0,1-.11-1.28c0-1.51-.08-3-.09-4.54s-.08-3.15-.11-4.73c0-1,0-2-.06-3,0-1.39-.08-2.78-.11-4.17,0-1.09,0-2.18-.05-3.27,0-1.53-.09-3.06-.12-4.6s0-3.09-.08-4.64c0-.86-.06-1.71-.08-2.56,0-1.32,0-2.65-.07-4,0-.2-.05-.41-.08-.61s.23-.42.39-.58l6.89-6.89,17.34-17.34C270.66,265,270.83,264.93,270.88,264.74Z"/>
    <path class="cls-29" d="M270.88,264.74c.24,0,.1.14,0,.2L269.83,266l-12.54,12.54-11,11c-.14.14-.27.29-.4.44a15.48,15.48,0,0,0-2-.09c-1.85-.07-3.71-.06-5.56-.15-1.09-.06-2.19,0-3.28,0-.89-.05-1.78-.06-2.67-.07-1.58,0-3.16,0-4.74-.11s-3.09,0-4.63-.14c-1-.08-2,0-3,0-1.22-.07-2.45,0-3.66-.07s-2.22,0-3.33-.1c-1.35-.07-2.71-.05-4.07-.06a.42.42,0,0,1-.37-.11c1.19-.34,2.3-.85,3.44-1.28s2.14-.85,3.21-1.27l5.14-2c1.62-.62,3.23-1.27,4.85-1.9s3.22-1.22,4.81-1.88c1-.41,2-.78,3-1.17,1.35-.54,2.71-1.06,4.07-1.59,1.54-.6,3.08-1.21,4.62-1.79,1.81-.67,3.59-1.41,5.39-2.08,1.63-.61,3.24-1.25,4.86-1.89,2-.8,4-1.58,6.06-2.37,1.58-.62,3.17-1.26,4.76-1.86s3.28-1.25,4.91-1.91C268.69,265.58,269.78,265.15,270.88,264.74Z"/>
  </g>
  <g>
    <path class="cls-32" d="M364,290.61c.48,1.07,1,2.15,1.45,3.21.63,1.38,1.29,2.74,1.91,4.11s1.2,2.71,1.82,4.05c.54,1.17,1.07,2.35,1.6,3.52l1.1,2.4c.55,1.18,1.09,2.36,1.63,3.55.66,1.43,1.31,2.87,2,4.31l1.72,3.78c.53,1.17,1.06,2.35,1.62,3.51s1.19,2.6,1.8,3.9,1.2,2.71,1.82,4.05,1.11,2.41,1.65,3.61l1.09,2.37c.8,1.75,1.62,3.49,2.42,5.25.61,1.33,1.16,2.68,1.8,4,.47,1,.92,2,1.38,3a13.77,13.77,0,0,1,.72,1.62c0,.17,0,.17-.16.12q-9.13-9.1-18.25-18.23L360,319.59a1.2,1.2,0,0,1-.38-.48,13.22,13.22,0,0,1,.21-1.52c.24-1.64.48-3.28.74-4.92q.33-2,.63-4.08l.66-4.34.48-3.14c.18-1.14.35-2.27.52-3.4.21-1.38.42-2.75.64-4.13.14-.88.25-1.76.41-2.64C363.9,290.83,363.88,290.7,364,290.61Z"/>
    <path class="cls-33" d="M359.65,319.12l3.63,3.65L374.49,334l14.29,14.27c.8.81,1.6,1.61,2.39,2.42.07.07.22.11.16.26l-2.41-1.06-3-1.36c-.9-.42-1.79-.85-2.7-1.26L380.36,346l-3.27-1.49-3.86-1.76-3.53-1.6c-1.34-.63-2.69-1.24-4-1.86L362.81,338c-1.32-.57-2.59-1.25-3.9-1.82-1-.44-2-.91-3-1.36s-1.81-.82-2.71-1.26c-.66-.33-1.35-.59-2-.91-.86-.4-1.73-.79-2.59-1.2-.64-.3-1.31-.58-1.95-.88-.92-.43-1.85-.82-2.76-1.27s-2.12-1-3.18-1.45L338,326.58c-1-.48-2.09-.94-3.13-1.41-.87-.41-1.74-.84-2.61-1.24-.33-.16-.68-.29-1-.43,0-.21.2-.18.33-.21,1.61-.25,3.21-.47,4.81-.73,1.41-.24,2.82-.43,4.23-.65l4.56-.7c1.79-.28,3.59-.56,5.39-.82l4.66-.71c1.29-.18,2.58-.38,3.87-.59a1.36,1.36,0,0,0,.42-.13C359.63,318.93,359.61,319.05,359.65,319.12Z"/>
    <path class="cls-34" d="M359.65,319.12l-.14-.14c-.11,0-.18,0-.25-.11s-.21-.2-.32-.3l-26.81-26.82a3.07,3.07,0,0,1-.25-.26c.07-.24.29-.2.45-.21,1.18,0,2.36,0,3.54-.07.74,0,1.49,0,2.23,0,.94,0,1.88-.11,2.82-.1s1.87,0,2.8,0c1.32,0,2.65-.1,4-.1.84,0,1.68,0,2.52,0,1.26,0,2.53-.11,3.79-.1s2.53,0,3.79-.06l2.94-.08c.9,0,1.8-.1,2.7,0,.18,0,.37-.08.56,0-.11.73-.23,1.47-.33,2.21-.2,1.48-.45,3-.66,4.45-.18,1.26-.39,2.51-.58,3.77-.23,1.58-.5,3.15-.74,4.72-.2,1.35-.38,2.69-.59,4-.27,1.74-.56,3.48-.84,5.22C360,316.39,359.85,317.75,359.65,319.12Z"/>
    <path class="cls-35" d="M331.88,291.49c.2,0,.28.18.4.29l26.88,26.88.35.32c-.21.33-.59.22-.88.27-1.08.18-2.16.36-3.24.51s-2.24.35-3.36.5-2.31.35-3.46.52l-5.06.78-4.95.75c-1.9.3-3.8.61-5.7.89-.49.07-1,.13-1.46.21-.08,0-.14,0-.18.09s-.12,0-.12-.1c.12-1.79.09-3.59.16-5.38,0-.86,0-1.73,0-2.59l.09-3.53c0-1.31.07-2.62.09-3.92,0-1.06,0-2.13.06-3.18s0-2.38.11-3.57.05-2.09.08-3.14,0-2.27.07-3.41c0-1,0-1.92,0-2.88A2.82,2.82,0,0,1,331.88,291.49Z"/>
    <path class="cls-32" d="M305.26,265c-.08-.08-.13-.2-.07-.27s.18,0,.28,0c1.32.53,2.64,1.06,4,1.57l2.52,1c.91.35,1.81.73,2.71,1.08l2.73,1,3.8,1.49,2.74,1.1c.52.2,1.05.36,1.55.58.83.36,1.67.68,2.51,1,1.24.46,2.46,1,3.71,1.43.94.33,1.85.74,2.78,1.1,1.15.45,2.31.86,3.44,1.33.81.34,1.63.65,2.45,1l1.82.7c1.09.4,2.17.85,3.26,1.28l1.81.7,3.62,1.43c1.26.49,2.53.94,3.78,1.44s2.25.91,3.37,1.36a7.81,7.81,0,0,0,.82.26l0,.15h-2.24l-2.95.05c-1.34,0-2.67.07-4,.08s-2.39.08-3.58.11c-.92,0-1.84,0-2.76,0s-2.09.05-3.14.07-2.37,0-3.56.08-2.44,0-3.66.09c-1.06,0-2.13,0-3.2.07l-2.58,0a.64.64,0,0,0-.28.07c-.23,0-.33-.18-.46-.32L312.2,271.82l-6.58-6.57C305.51,265.14,305.43,265,305.26,265Z"/>
    <path class="cls-33" d="M305.26,265c0-.2.12-.08.18,0,.31.3.61.62.92.93l10.75,10.74,9.68,9.69.09.06a9.56,9.56,0,0,0-.07,1.69c0,1-.06,2-.09,3s0,2.28-.06,3.42,0,2.14-.07,3.21c0,.7,0,1.39-.06,2.08,0,1.24-.09,2.48-.1,3.71,0,1.08-.05,2.15-.06,3.23s-.07,2.33-.1,3.5,0,2.26,0,3.4-.09,2.24-.09,3.36a13,13,0,0,0,0,1.41,5.71,5.71,0,0,1-.5-1.2c-.41-1.12-.87-2.21-1.29-3.32-.67-1.77-1.37-3.53-2.06-5.29-.56-1.45-1.13-2.89-1.69-4.34-.36-.92-.73-1.84-1.09-2.77-.45-1.15-.9-2.31-1.34-3.46s-.83-2.16-1.25-3.23l-1.53-3.88c-.68-1.75-1.36-3.51-2.05-5.26l-1.71-4.44c-.38-1-.78-2-1.15-2.94-.46-1.23-1-2.44-1.44-3.66-.34-.86-.66-1.72-1-2.58s-.7-1.8-1.07-2.69-.79-2-1.2-3A7.23,7.23,0,0,1,305.26,265Z"/>
  </g>
  <g>
    <path class="cls-36" d="M192.74,196c-.35-.74-.71-1.47-1.05-2.22q-1-2.21-2-4.43c-.84-1.84-1.66-3.69-2.51-5.54-.77-1.68-1.6-3.35-2.33-5.06-.38-.9-.84-1.77-1.2-2.68-.43-1.07-1-2.11-1.45-3.16s-.88-1.87-1.3-2.81-1-2.14-1.46-3.21L178.08,164q-1.07-2.32-2.14-4.67c-.7-1.51-1.42-3-2.11-4.54-1-2.24-2-4.5-3-6.74-.44-1-.87-2-1.34-2.93-.84-1.72-1.58-3.49-2.42-5.23-.39-.81-.72-1.65-1.1-2.47-.66-1.44-1.37-2.87-2-4.32-.75-1.73-1.55-3.43-2.32-5.14-.62-1.37-1.25-2.74-1.88-4.11l-1.7-3.72c-.66-1.46-1.34-2.92-2-4.38,0-.07-.16-.15,0-.23s.15,0,.19.07a4.53,4.53,0,0,1,.78.67L198,157.27a1.8,1.8,0,0,1,.57.71,13.94,13.94,0,0,1-.27,2c-.32,2.19-.65,4.37-1,6.56-.29,1.81-.58,3.63-.84,5.44s-.58,3.86-.88,5.79c-.21,1.39-.43,2.79-.64,4.19s-.47,3-.69,4.53c-.28,1.83-.56,3.67-.85,5.5-.19,1.17-.35,2.35-.55,3.52A.66.66,0,0,1,192.74,196Z"/>
    <path class="cls-37" d="M198.52,158l-4.85-4.86-15-15.06q-9.47-9.47-18.94-18.93c-1.18-1.19-2.4-2.32-3.51-3.58a30,30,0,0,1,3,1.36c.72.35,1.46.64,2.18,1l4.69,2.12c1.16.52,2.33,1,3.48,1.56q2.4,1.14,4.82,2.23c1,.44,1.92.87,2.88,1.32,1.19.57,2.38,1.14,3.58,1.68s2.69,1.15,4,1.79,2.58,1.16,3.85,1.78c.74.37,1.51.69,2.27,1,1.3.6,2.61,1.19,3.91,1.82.71.35,1.45.65,2.17,1l4.62,2.09,3.57,1.6c1.58.72,3.17,1.44,4.74,2.19,1,.48,2,.93,3.05,1.38,1.77.8,3.52,1.64,5.28,2.45,1.39.64,2.79,1.23,4.17,1.86s2.62,1.24,3.94,1.84c1.79.82,3.59,1.6,5.37,2.44,1.5.71,3,1.39,4.52,2.07a.65.65,0,0,1,.15.1,1.57,1.57,0,0,1-1,.3c-2.56.36-5.12.78-7.67,1.16l-6.71,1q-4.49.7-9,1.38c-2.58.38-5.15.78-7.72,1.17-1.68.25-3.35.5-5,.77a2.08,2.08,0,0,0-.6.18C198.55,158.23,198.57,158.06,198.52,158Z"/>
    <path class="cls-38" d="M198.52,158l.18.19c.16-.06.25.05.34.14s.28.27.42.41l35.74,35.74a2.82,2.82,0,0,1,.33.36c-.11.38-.47.27-.69.27-1.58.06-3.16,0-4.74.11-.85.07-1.71,0-2.56,0-1.28,0-2.56,0-3.83.06-1.76.05-3.52.06-5.28.13s-3.32.06-5,.13c-1.37.07-2.75,0-4.12.09-1.65.07-3.3,0-5,.13-1,.08-2.11,0-3.17,0-1.7,0-3.41.1-5.12.14l-3.35.05c.14-1,.3-2,.43-3,.27-2,.6-4,.88-5.94.24-1.68.52-3.35.77-5,.31-2.11.67-4.2,1-6.3.27-1.79.51-3.59.78-5.38.36-2.33.76-4.64,1.12-7C198,161.61,198.25,159.79,198.52,158Z"/>
    <path class="cls-39" d="M235.53,194.81c-.26,0-.38-.25-.53-.4l-35.83-35.82c-.15-.15-.31-.29-.47-.43.29-.44.79-.3,1.18-.37,1.44-.24,2.88-.47,4.32-.67s3-.47,4.49-.66,3.07-.47,4.6-.71l6.75-1,6.65-1c2.5-.39,5-.79,7.51-1.16.74-.11,1.49-.19,2.23-.34.25.31,0,.65,0,1,0,1.57-.07,3.14-.1,4.71,0,1,0,2.06-.05,3.09l-.15,5c0,1.1,0,2.2,0,3.31L236,175c0,1.16,0,2.32-.07,3.48-.1,1.58-.07,3.16-.14,4.75,0,.87,0,1.76,0,2.64,0,2.17-.08,4.35-.13,6.52C235.59,193.21,235.55,194,235.53,194.81Z"/>
    <path class="cls-36" d="M271,230.19a.32.32,0,0,1,0,.44c-.11.12-.22-.06-.33-.1-1.55-.6-3.1-1.19-4.65-1.8-1.1-.43-2.17-.92-3.28-1.3s-2.44-1-3.66-1.42l-3.62-1.4c-1.36-.54-2.71-1.12-4.09-1.61-1.1-.38-2.17-.83-3.25-1.24s-2.13-.78-3.15-1.26a11,11,0,0,0-1.57-.59,23.31,23.31,0,0,1-2.33-.89c-1.52-.65-3.1-1.15-4.6-1.83-.56-.25-1.16-.45-1.73-.68-1.21-.47-2.4-.95-3.61-1.4-.71-.27-1.41-.59-2.13-.83-1.25-.43-2.47-.95-3.7-1.43s-2.26-.86-3.38-1.32c-1.52-.64-3.08-1.2-4.62-1.82-.84-.34-1.71-.63-2.55-1-1.2-.48-2.41-.92-3.6-1.42-1-.42-2.07-.76-3.08-1.2s-2.19-.87-3.28-1.31-2.28-.9-3.44-1.32c-.64-.23-1.27-.49-1.9-.74l0-.13c1.06,0,2.12,0,3.18,0,1.29,0,2.58-.11,3.87-.12.85,0,1.69,0,2.54-.06,1.31,0,2.61,0,3.92-.09.72-.05,1.45,0,2.18,0,1.54-.06,3.08-.08,4.63-.15s3.42,0,5.12-.07c1.28-.07,2.56-.05,3.84-.11s2.41,0,3.61-.07c2.06-.05,4.11,0,6.17-.16.9-.06,1.8,0,2.7,0a2.74,2.74,0,0,0,.9-.1c.31,0,.44.25.62.42L261.71,221l8.84,8.84C270.7,230,270.81,230.14,271,230.19Z"/>
    <path class="cls-37" d="M271,230.19c0,.27-.16.12-.24,0-.42-.41-.82-.83-1.23-1.24l-14.33-14.33-12.91-12.91a.54.54,0,0,0-.12-.09c.06-.82,0-1.64.07-2.45.05-1,0-2,.08-3.06.08-1.76.08-3.53.12-5.3,0-1.15,0-2.3.07-3.46s.08-2.54.07-3.81c0-.88,0-1.78.09-2.66.08-1.55.06-3.11.13-4.66s0-3.11.06-4.67.1-3.13.14-4.69c.05-1.8.12-3.61.14-5.41,0-.79,0-1.59.06-2.38,0,0,0,0,.09-.08a18.22,18.22,0,0,0,.82,2.21c.42,1.09.87,2.18,1.29,3.28l1.43,3.69c.43,1.08.86,2.16,1.28,3.24s.85,2.19,1.27,3.29c.54,1.38,1.06,2.77,1.6,4.15.48,1.22,1,2.43,1.45,3.67s.93,2.41,1.38,3.62c.39,1,.81,2.07,1.22,3.1.48,1.18.92,2.37,1.39,3.56s1,2.53,1.49,3.8c.42,1.07.82,2.15,1.24,3.21.5,1.29,1,2.58,1.52,3.87.61,1.55,1.19,3.12,1.82,4.67.42,1,.81,2.1,1.24,3.14.28.67.54,1.36.8,2,.43,1.13.89,2.25,1.32,3.37.48,1.27.94,2.54,1.43,3.8s.92,2.35,1.4,3.51,1,2.55,1.5,3.81C270.51,228.76,270.79,229.47,271,230.19Z"/>
  </g>
  <g>
    <path class="cls-40" d="M288.14,271.72v-.11h.1a11.62,11.62,0,0,0,.54,1.31c.44,1,.89,2.06,1.34,3.08s.87,2,1.31,3c.78,1.79,1.55,3.59,2.34,5.37.46,1.05.93,2.1,1.38,3.15.62,1.44,1.28,2.87,1.91,4.31q1.14,2.59,2.26,5.21l1.89,4.31,2.22,5c.7,1.6,1.41,3.2,2.11,4.79l1.26,2.93c.49,1.09,1,2.18,1.46,3.28l1.22,2.79c.47,1.08.94,2.16,1.42,3.24s.94,2.16,1.42,3.24c.3.69.61,1.38.91,2.08a.18.18,0,0,1,0,.18l-1.2-1.15c-.81-.75-1.6-1.52-2.41-2.29l-2.86-2.74c-.88-.83-1.74-1.69-2.61-2.52s-1.5-1.41-2.23-2.13-1.46-1.4-2.19-2.09-1.59-1.5-2.38-2.25-1.37-1.31-2-2l-1.64-1.59-1.59-1.51c-.48-.46-1-.91-1.46-1.38-.78-.74-1.55-1.49-2.32-2.24a.78.78,0,0,0-.15-.1.32.32,0,0,1-.07-.25c0-.13,0-.26,0-.38v-31.6A6.3,6.3,0,0,1,288.14,271.72Z"/>
    <path class="cls-40" d="M313.27,336.73a6.48,6.48,0,0,1-.41,1.22c-.44,1.23-.92,2.43-1.37,3.65-.66,1.77-1.31,3.55-2,5.32q-1.2,3.19-2.39,6.41c-.59,1.57-1.18,3.15-1.76,4.72l-2,5.43c-.68,1.83-1.36,3.67-2.05,5.5s-1.39,3.72-2.08,5.59l-1.89,5.07-2.07,5.57c-.62,1.66-1.24,3.33-1.85,5l-2.07,5.54-1.92,5.15L288.26,404s0,.13-.09.11,0-.07,0-.11c-.05-.55,0-1.09,0-1.64q0-23.25,0-46.5a4.7,4.7,0,0,1,0-.53.63.63,0,0,1,.26-.41c.85-.58,1.66-1.21,2.49-1.82.67-.48,1.33-1,2-1.47l2.39-1.75,1.39-1c.58-.44,1.16-.87,1.76-1.29l1-.74c.46-.33.9-.67,1.35-1s1-.75,1.54-1.13.78-.58,1.17-.86.94-.7,1.41-1.05c.76-.54,1.5-1.11,2.26-1.66s1.69-1.24,2.53-1.85l2-1.48c.48-.37,1-.72,1.47-1.08A.09.09,0,0,1,313.27,336.73Z"/>
    <path class="cls-41" d="M288.19,355.25V393q0,3.57,0,7.13c0,1.21,0,2.41,0,3.62,0,.09,0,.2-.06.28l-1.29-3.47L285,395.5c-.75-2-1.51-4.05-2.26-6.08-.88-2.35-1.74-4.7-2.62-7.05l-1.75-4.68-2-5.31c-.62-1.68-1.26-3.36-1.88-5-.49-1.33-1-2.65-1.46-4-.62-1.68-1.25-3.34-1.88-5s-1.31-3.51-2-5.27L266.89,347c-.92-2.48-1.83-5-2.76-7.44l-1-2.58a1.41,1.41,0,0,1-.06-.22c.09-.07.15,0,.22,0,.69.53,1.41,1,2.1,1.54s1.34,1,2,1.49l1.7,1.25c.66.49,1.34,1,2,1.47.41.32.85.62,1.27.94l1.61,1.19c.45.32.87.65,1.32,1s.78.58,1.17.87c.79.58,1.57,1.17,2.36,1.74s1.67,1.23,2.51,1.83l1.86,1.37c.75.56,1.5,1.13,2.26,1.67s1.64,1.24,2.49,1.82c.09.06.19.11.22.23S288.22,355.22,288.19,355.25Z"/>
    <path class="cls-42" d="M288.19,355.25v-.1a1.32,1.32,0,0,1-.08-.59V326.19q0-6.53,0-13c0-.17,0-.34.08-.49s.25.15.34.24c.81.8,1.63,1.57,2.45,2.34.66.62,1.28,1.26,1.93,1.88.82.79,1.66,1.56,2.48,2.34.65.62,1.28,1.26,1.93,1.88s1.11,1,1.66,1.55l1.48,1.45c.45.44.92.86,1.37,1.29l1.53,1.48,1.35,1.28,1.46,1.41,1.46,1.37,1.25,1.21c.32.31.63.62,1,.91s.51.5.76.75l1.26,1.2,1.38,1.32c.06.05,0,.1,0,.16l-1.29.94-1.56,1.14-2.74,2c-.62.46-1.21.93-1.83,1.38l-1.75,1.28c-.55.39-1.09.81-1.65,1.19-.34.23-.68.5-1,.76s-.87.59-1.28.91-1,.74-1.48,1.1-.91.67-1.37,1l-1.27.94-1.58,1.16-1.3,1c-.47.34-.95.68-1.41,1s-.86.66-1.29,1-1,.72-1.53,1.11C288.68,354.84,288.35,354.94,288.19,355.25Z"/>
    <path class="cls-43" d="M288.19,312.67v42.1c0,.13,0,.25,0,.38-.3-.22-.61-.41-.9-.65-.47-.4-1-.74-1.48-1.11s-.86-.62-1.29-.93-.64-.45-.94-.71-.6-.44-.9-.66l-1.36-1c-.53-.38-1.05-.8-1.59-1.17s-1.23-.91-1.86-1.35c-.33-.23-.65-.51-1-.74s-.83-.65-1.28-.93-.83-.62-1.25-.93l-1.58-1.15-1.34-1-1.86-1.34c-.63-.46-1.25-.93-1.88-1.38s-1.3-1-2-1.45l-1-.78c-.41-.31-.82-.61-1.25-.89-.12-.07-.17-.24-.34-.23-.05-.21.16-.27.25-.37.49-.49,1-.95,1.5-1.42l2.22-2.13c.77-.75,1.55-1.5,2.32-2.23.61-.58,1.21-1.16,1.83-1.72s1.09-1.05,1.63-1.57l2.49-2.4,3.31-3.17,2.47-2.37c.86-.82,1.74-1.63,2.6-2.46,1-1,2-1.94,3-2.92l1.31-1.24A.45.45,0,0,1,288.19,312.67Z"/>
    <path class="cls-41" d="M288.14,271.72a1.86,1.86,0,0,1,.05.78c0,1.8,0,3.6,0,5.4v26.8a1.62,1.62,0,0,1,0,.22c-.36.36-.73.71-1.1,1.06l-1.44,1.36-1,1c-.64.6-1.3,1.2-1.93,1.82-.79.75-1.55,1.52-2.34,2.27s-1.57,1.46-2.34,2.2l-1.9,1.84L274.53,318c-.67.64-1.34,1.27-2,1.92-.45.45-.93.86-1.39,1.29s-.82.82-1.24,1.22-1.1,1-1.64,1.54l-1.51,1.47-1.37,1.28c-.5.48-1,1-1.5,1.44a3.63,3.63,0,0,1-.75.66,7.16,7.16,0,0,1,.49-1.18c.51-1.2,1-2.39,1.56-3.59s1-2.19,1.46-3.28c.62-1.43,1.24-2.87,1.87-4.3l1.47-3.33,1.75-4c.52-1.19,1-2.39,1.57-3.58l1.4-3.2c.51-1.16,1-2.32,1.55-3.49q.92-2.13,1.84-4.25c.42-1,.87-2,1.3-2.95.78-1.77,1.55-3.55,2.33-5.33l2.08-4.72c.58-1.31,1.14-2.62,1.72-3.93.48-1.1,1-2.21,1.46-3.31C287.38,273.47,287.76,272.59,288.14,271.72Z"/>
  </g>
  <g>
    <path class="cls-44" d="M288,170.11c-.23,0-.33-.19-.45-.31-1.06-1-2.13-2.05-3.21-3.06-.85-.81-1.67-1.65-2.51-2.46-1.08-1-2.17-2-3.25-3.06-.85-.81-1.67-1.64-2.52-2.45-.7-.68-1.43-1.34-2.14-2s-1.31-1.29-2-1.92l-1.76-1.67-2-1.95-1.76-1.68c-.64-.61-1.27-1.23-1.92-1.83l-1.93-1.82c-.66-.64-1.3-1.29-2-1.92s-1.18-1.11-1.77-1.67l-2-1.91-1.54-1.49a.53.53,0,0,0-.19-.06v-.2a.08.08,0,0,0,.07,0,3.3,3.3,0,0,1,.93-.77c1-.75,2-1.51,3.06-2.25l3.14-2.31,3.35-2.47,2.41-1.77c.83-.6,1.66-1.2,2.48-1.83.56-.42,1.14-.81,1.7-1.23s1.32-1,2-1.46,1.15-.87,1.74-1.28,1.07-.8,1.61-1.2c1-.73,2-1.47,3-2.19s2.2-1.62,3.31-2.43c.87-.63,1.75-1.27,2.6-1.93.48-.37,1-.69,1.45-1.08.05,0,.1,0,.13,0a.35.35,0,0,1,0,.17,5.24,5.24,0,0,1,0,.56q0,27.11,0,54.21C288.11,169.65,288.17,169.9,288,170.11Z"/>
    <path class="cls-45" d="M287.94,223.81a14.3,14.3,0,0,0-.71-1.71c-.57-1.35-1.16-2.7-1.75-4s-1.14-2.58-1.71-3.87c-1-2.34-2-4.68-3.06-7-.61-1.37-1.22-2.74-1.81-4.12-.81-1.88-1.67-3.75-2.49-5.63-1-2.27-2-4.54-3-6.81L271,185l-2.89-6.6-2.76-6.26c-.56-1.27-1.1-2.55-1.66-3.82-.63-1.44-1.27-2.86-1.9-4.29-.54-1.22-1.07-2.43-1.6-3.65-.62-1.41-1.23-2.83-1.85-4.24l-1.86-4.27c-.43-1-.9-1.93-1.27-2.93.44.4.88.8,1.31,1.21.91.86,1.81,1.74,2.71,2.61l2,1.89c1,1,2,2,3.05,2.93s1.91,1.83,2.87,2.75,1.95,1.84,2.91,2.78,1.9,1.83,2.87,2.73l3.1,2.95c.9.85,1.8,1.71,2.68,2.58l2.14,2.07,2.07,2,1.92,1.8,3,2.94a2,2,0,0,0,.19.12.43.43,0,0,1,.1.34c0,.16,0,.31,0,.46v41.35a9.08,9.08,0,0,1-.05,1.28v.14Z"/>
    <path class="cls-45" d="M288,114.43c-.2.4-.63.53-.95.79-.57.46-1.16.89-1.75,1.31s-1.44,1-2.17,1.56c-.43.31-.87.63-1.28,1s-.74.54-1.11.81L279,121.19l-2.3,1.7-3.27,2.38-1.67,1.26c-.79.57-1.57,1.16-2.35,1.74s-1.28.93-1.92,1.41-1.52,1.11-2.28,1.67L263,133c-.77.55-1.51,1.13-2.29,1.67s-1.43,1.06-2.16,1.57c-.44.3-.87.63-1.28,1s-.81.57-1.2.86a10.72,10.72,0,0,1-.88.62c.19-.71.49-1.39.74-2.09.48-1.33,1-2.65,1.48-4l2.73-7.32c1-2.77,2.07-5.54,3.1-8.32q1.15-3.09,2.3-6.18c.88-2.35,1.75-4.71,2.63-7.07l2.7-7.25,2.7-7.24,2.49-6.7q1.35-3.61,2.69-7.22l2.43-6.55c.9-2.42,1.81-4.84,2.71-7.25q1.25-3.37,2.51-6.73c.5-1.37,1-2.74,1.52-4.1,0-.06,0-.18.11-.15s0,.1.05.15c.06.71,0,1.42,0,2.13q0,30.48,0,61C288.11,114,288.18,114.22,288,114.43Z"/>
    <path class="cls-1" d="M288,114.43V102.87c0-3.35,0-6.71,0-10.07s0-6.94,0-10.41c0-2.91,0-5.82,0-8.73V51c0-.12-.05-.26.08-.36l1.69,4.53,2.46,6.62,3,8L298.61,79l2.29,6.12L303.48,92c.82,2.2,1.65,4.39,2.47,6.59.64,1.72,1.26,3.46,1.91,5.19q1.22,3.27,2.45,6.55c.86,2.29,1.71,4.59,2.57,6.89l3,8,3.6,9.73c.42,1.13.86,2.25,1.28,3.38a2.29,2.29,0,0,1,.08.28c-.12.09-.21,0-.29-.06-.91-.7-1.87-1.35-2.78-2s-1.74-1.3-2.61-1.94L312.92,133c-.87-.63-1.73-1.27-2.59-1.91-.6-.44-1.21-.87-1.8-1.32s-1.32-1-2-1.46-1.15-.87-1.75-1.28-1-.74-1.5-1.11c-1-.77-2.07-1.55-3.12-2.3s-2.18-1.61-3.28-2.4l-2.3-1.7c-1-.75-2.05-1.52-3.08-2.28l-3-2.18c-.19-.15-.46-.21-.55-.48Z"/>
    <path class="cls-46" d="M288,114.57c.4.28.81.54,1.18.84.62.52,1.3,1,1.95,1.46s1.12.8,1.67,1.21.85.59,1.24.93.79.56,1.18.86c.58.45,1.17.88,1.77,1.31s1.39,1.06,2.1,1.56,1.61,1.19,2.44,1.75,1.78,1.34,2.67,2c1.1.81,2.21,1.6,3.32,2.41l1.65,1.25c.78.56,1.54,1.15,2.32,1.7.57.4,1.1.84,1.68,1.21s1.11.86,1.68,1.26c.87.59,1.68,1.25,2.54,1.85.45.32.89.67,1.34,1s1.07.8,1.63,1.16c.15.1.22.32.45.31.06.27-.21.36-.34.48-.63.64-1.31,1.24-2,1.86l-2.9,2.79-3,2.92c-.79.75-1.57,1.51-2.38,2.25s-1.43,1.36-2.14,2.05l-3.25,3.14-4.34,4.15c-1.07,1-2.14,2.06-3.22,3.08s-2.28,2.14-3.41,3.22l-3.94,3.82q-.86.83-1.71,1.62a.58.58,0,0,1-.18.08V114.57Z"/>
    <path class="cls-1" d="M288.07,223.67a2.51,2.51,0,0,1-.06-1c0-2.36,0-4.71,0-7.06v-7.88c0-3.09,0-6.19,0-9.28,0-3.46,0-6.92,0-10.37,0-2.51,0-5,0-7.52,0-.1,0-.2,0-.3.48-.45,1-.92,1.45-1.37.62-.6,1.26-1.19,1.88-1.78.44-.42.86-.84,1.3-1.25.84-.79,1.67-1.6,2.52-2.39,1-1,2-2,3-3s2.05-1.91,3.07-2.88c.84-.79,1.65-1.6,2.48-2.4l2.11-2c.87-.83,1.72-1.68,2.6-2.5.59-.54,1.16-1.09,1.73-1.64l1.71-1.65,2.14-2,2-1.91,1.79-1.69c.67-.63,1.32-1.27,2-1.91l.8-.75s.07-.1.12-.08,0,.11,0,.17c-.32.73-.63,1.47-1,2.2l-1.65,3.73q-.94,2.18-1.9,4.37l-1.65,3.73-2.14,4.9-2.28,5.19c-.62,1.43-1.25,2.85-1.88,4.28-.9,2.06-1.79,4.12-2.7,6.17-.64,1.48-1.31,2.94-2,4.42-.81,1.85-1.6,3.7-2.4,5.56-.56,1.28-1.14,2.56-1.71,3.85-1,2.32-2,4.65-3.05,7q-1.36,3.07-2.72,6.17c-.75,1.71-1.49,3.42-2.25,5.14q-.94,2.16-1.91,4.32Z"/>
  </g>
</svg>
