<svg id="Layer_1" data-name="Layer 1" xmlns="http://www.w3.org/2000/svg" width="145.9" height="385.5" viewBox="0 0 145.9 385.5">
  <defs>
    <style>
      .cls-1 {
        fill: #7fffb3;
      }

      .cls-2 {
        fill: #40ff8d;
      }

      .cls-3 {
        fill: #00ff67;
      }

      .cls-4 {
        fill: #8b8b8b;
      }

      .cls-5 {
        fill: #333;
      }
    </style>
  </defs>
  <g id="Layer_2" data-name="Layer 2">
    <polyline class="cls-1" points="19.99 0 72.75 98.87 126.11 0 73.05 16.58"/>
    <polyline class="cls-2" points="19.95 62.06 72.71 160.93 126.07 62.06 73.01 78.63"/>
    <polyline class="cls-3" points="19.84 120.02 72.61 218.9 125.96 120.02 72.9 136.6"/>
    <path class="cls-4" d="M72.88,385.5a33.24,33.24,0,0,0-1.58-3.81c-1.28-3-2.58-6-3.89-9s-2.55-5.73-3.81-8.61c-2.28-5.2-4.53-10.42-6.82-15.61q-2-4.58-4-9.16c-1.81-4.2-3.71-8.35-5.55-12.53-2.21-5.05-4.39-10.11-6.59-15.15q-2.75-6.29-5.5-12.55l-6.44-14.67c-2-4.65-4.1-9.28-6.13-13.93-1.24-2.83-2.45-5.68-3.69-8.51-1.4-3.18-2.83-6.36-4.24-9.54q-1.79-4.05-3.55-8.11L7,234.91q-2.07-4.74-4.15-9.49c-.94-2.18-2-4.3-2.82-6.52,1,.89,2,1.77,2.91,2.69,2,1.92,4,3.87,6,5.8l4.4,4.22c2.26,2.17,4.47,4.39,6.77,6.52s4.26,4.06,6.39,6.1,4.35,4.1,6.48,6.2,4.23,4.07,6.38,6.07c2.32,2.16,4.61,4.35,6.91,6.55,2,1.9,4,3.8,5.95,5.73q2.37,2.33,4.75,4.62t4.62,4.38c1.42,1.34,2.85,2.67,4.26,4,2.26,2.17,4.5,4.36,6.75,6.54a3,3,0,0,0,.42.27,1,1,0,0,1,.23.75c0,.34,0,.68,0,1v92a19.4,19.4,0,0,1-.1,2.85v.3Z"/>
    <path class="cls-5" d="M73.16,385.2a5.68,5.68,0,0,1-.14-2.28c0-5.23,0-10.47,0-15.7V349.7c0-6.88,0-13.77,0-20.65,0-7.69,0-15.38,0-23.07q0-8.37,0-16.72c0-.22,0-.44,0-.66l3.22-3.07c1.39-1.32,2.8-2.63,4.19-4,1-.91,1.9-1.86,2.88-2.77,1.88-1.76,3.72-3.57,5.61-5.32,2.31-2.14,4.51-4.41,6.79-6.59s4.57-4.27,6.83-6.42c1.85-1.76,3.67-3.56,5.52-5.34,1.55-1.5,3.12-3,4.68-4.49,1.93-1.85,3.83-3.74,5.8-5.56q1.94-1.8,3.84-3.65c1.27-1.22,2.53-2.45,3.8-3.66,1.59-1.5,3.19-3,4.76-4.48s2.92-2.85,4.39-4.25c1.32-1.26,2.66-2.5,4-3.76,1.48-1.4,2.94-2.82,4.41-4.23.6-.57,1.21-1.12,1.79-1.69.09-.09.16-.22.28-.16s.08.23,0,.37c-.72,1.62-1.42,3.26-2.14,4.88L140,232.76c-1.42,3.23-2.82,6.47-4.23,9.71l-3.67,8.31q-2.38,5.45-4.76,10.9l-5.07,11.55-4.18,9.51c-2,4.57-4,9.16-6,13.73-1.45,3.28-2.93,6.54-4.36,9.82-1.8,4.12-3.56,8.25-5.36,12.36-1.25,2.87-2.53,5.72-3.78,8.58l-6.8,15.51c-2,4.58-4,9.15-6,13.73-1.67,3.81-3.32,7.63-5,11.43-1.41,3.22-2.84,6.42-4.25,9.63C75.38,380.08,74.27,382.64,73.16,385.2Z"/>
  </g>
</svg>
